<svg xmlns="http://www.w3.org/2000/svg" width="1120" height="650" viewBox="0 0 1120 650">
<style>
text{font-family:Inter,Segoe UI,Arial,sans-serif;fill:#1f2933}
.title{font-size:26px;font-weight:700}.subtitle{font-size:14px;fill:#52606d}
.axis{stroke:#52606d;stroke-width:1}.grid{stroke:#d9e2ec;stroke-width:1}
.tick{font-size:12px;fill:#52606d}.legend{font-size:13px;fill:#334e68}
</style>
<rect width="1120" height="650" fill="#fbfcfe"/>
<text x="82" y="34" class="title">Germany days over 35 C</text>
<text x="82" y="55" class="subtitle">Calendar days per year where at least one DWD station reported TXK &gt; 35 C</text>
<line x1="82" y1="572" x2="1086" y2="572" class="axis"/>
<line x1="82" y1="62" x2="82" y2="572" class="axis"/>
<line x1="82" y1="572.0" x2="1086" y2="572.0" class="grid"/>
<text x="72" y="576.0" text-anchor="end" class="tick">0</text>
<line x1="82" y1="470.0" x2="1086" y2="470.0" class="grid"/>
<text x="72" y="474.0" text-anchor="end" class="tick">5</text>
<line x1="82" y1="368.0" x2="1086" y2="368.0" class="grid"/>
<text x="72" y="372.0" text-anchor="end" class="tick">10</text>
<line x1="82" y1="266.0" x2="1086" y2="266.0" class="grid"/>
<text x="72" y="270.0" text-anchor="end" class="tick">15</text>
<line x1="82" y1="164.0" x2="1086" y2="164.0" class="grid"/>
<text x="72" y="168.0" text-anchor="end" class="tick">20</text>
<line x1="82" y1="62.0" x2="1086" y2="62.0" class="grid"/>
<text x="72" y="66.0" text-anchor="end" class="tick">25</text>
<line x1="82.0" y1="572" x2="82.0" y2="578" class="axis"/>
<text x="82.0" y="596" text-anchor="middle" class="tick">1956</text>
<line x1="140.2" y1="572" x2="140.2" y2="578" class="axis"/>
<text x="140.2" y="596" text-anchor="middle" class="tick">1960</text>
<line x1="285.7" y1="572" x2="285.7" y2="578" class="axis"/>
<text x="285.7" y="596" text-anchor="middle" class="tick">1970</text>
<line x1="431.2" y1="572" x2="431.2" y2="578" class="axis"/>
<text x="431.2" y="596" text-anchor="middle" class="tick">1980</text>
<line x1="576.7" y1="572" x2="576.7" y2="578" class="axis"/>
<text x="576.7" y="596" text-anchor="middle" class="tick">1990</text>
<line x1="722.2" y1="572" x2="722.2" y2="578" class="axis"/>
<text x="722.2" y="596" text-anchor="middle" class="tick">2000</text>
<line x1="867.7" y1="572" x2="867.7" y2="578" class="axis"/>
<text x="867.7" y="596" text-anchor="middle" class="tick">2010</text>
<line x1="1013.2" y1="572" x2="1013.2" y2="578" class="axis"/>
<text x="1013.2" y="596" text-anchor="middle" class="tick">2020</text>
<line x1="1086.0" y1="572" x2="1086.0" y2="578" class="axis"/>
<text x="1086.0" y="596" text-anchor="middle" class="tick">2025</text>
<text transform="translate(22 317.0) rotate(-90)" text-anchor="middle" class="tick">days</text>
<rect x="76.8" y="572.0" width="10.3" height="0.0" fill="#cbd5e1"/>
<rect x="91.4" y="429.2" width="10.3" height="142.8" fill="#c2410c"/>
<rect x="105.9" y="572.0" width="10.3" height="0.0" fill="#cbd5e1"/>
<rect x="120.5" y="490.4" width="10.3" height="81.6" fill="#c2410c"/>
<rect x="135.0" y="572.0" width="10.3" height="0.0" fill="#cbd5e1"/>
<rect x="149.6" y="572.0" width="10.3" height="0.0" fill="#cbd5e1"/>
<rect x="164.1" y="531.2" width="10.3" height="40.8" fill="#c2410c"/>
<rect x="178.7" y="470.0" width="10.3" height="102.0" fill="#c2410c"/>
<rect x="193.2" y="368.0" width="10.3" height="204.0" fill="#c2410c"/>
<rect x="207.8" y="551.6" width="10.3" height="20.4" fill="#c2410c"/>
<rect x="222.3" y="551.6" width="10.3" height="20.4" fill="#c2410c"/>
<rect x="236.9" y="551.6" width="10.3" height="20.4" fill="#c2410c"/>
<rect x="251.4" y="572.0" width="10.3" height="0.0" fill="#cbd5e1"/>
<rect x="266.0" y="510.8" width="10.3" height="61.2" fill="#c2410c"/>
<rect x="280.5" y="572.0" width="10.3" height="0.0" fill="#cbd5e1"/>
<rect x="295.1" y="470.0" width="10.3" height="102.0" fill="#c2410c"/>
<rect x="309.6" y="551.6" width="10.3" height="20.4" fill="#c2410c"/>
<rect x="324.2" y="572.0" width="10.3" height="0.0" fill="#cbd5e1"/>
<rect x="338.7" y="510.8" width="10.3" height="61.2" fill="#c2410c"/>
<rect x="353.3" y="531.2" width="10.3" height="40.8" fill="#c2410c"/>
<rect x="367.9" y="327.2" width="10.3" height="244.8" fill="#c2410c"/>
<rect x="382.4" y="572.0" width="10.3" height="0.0" fill="#cbd5e1"/>
<rect x="397.0" y="572.0" width="10.3" height="0.0" fill="#cbd5e1"/>
<rect x="411.5" y="572.0" width="10.3" height="0.0" fill="#cbd5e1"/>
<rect x="426.1" y="551.6" width="10.3" height="20.4" fill="#c2410c"/>
<rect x="440.6" y="572.0" width="10.3" height="0.0" fill="#cbd5e1"/>
<rect x="455.2" y="531.2" width="10.3" height="40.8" fill="#c2410c"/>
<rect x="469.7" y="327.2" width="10.3" height="244.8" fill="#c2410c"/>
<rect x="484.3" y="490.4" width="10.3" height="81.6" fill="#c2410c"/>
<rect x="498.8" y="531.2" width="10.3" height="40.8" fill="#c2410c"/>
<rect x="513.4" y="510.8" width="10.3" height="61.2" fill="#c2410c"/>
<rect x="527.9" y="572.0" width="10.3" height="0.0" fill="#cbd5e1"/>
<rect x="542.5" y="551.6" width="10.3" height="20.4" fill="#c2410c"/>
<rect x="557.0" y="510.8" width="10.3" height="61.2" fill="#c2410c"/>
<rect x="571.6" y="429.2" width="10.3" height="142.8" fill="#c2410c"/>
<rect x="586.1" y="470.0" width="10.3" height="102.0" fill="#c2410c"/>
<rect x="600.7" y="368.0" width="10.3" height="204.0" fill="#c2410c"/>
<rect x="615.2" y="572.0" width="10.3" height="0.0" fill="#cbd5e1"/>
<rect x="629.8" y="286.4" width="10.3" height="285.6" fill="#c2410c"/>
<rect x="644.3" y="449.6" width="10.3" height="122.4" fill="#c2410c"/>
<rect x="658.9" y="551.6" width="10.3" height="20.4" fill="#c2410c"/>
<rect x="673.4" y="551.6" width="10.3" height="20.4" fill="#c2410c"/>
<rect x="688.0" y="408.8" width="10.3" height="163.2" fill="#c2410c"/>
<rect x="702.5" y="510.8" width="10.3" height="61.2" fill="#c2410c"/>
<rect x="717.1" y="490.4" width="10.3" height="81.6" fill="#c2410c"/>
<rect x="731.6" y="429.2" width="10.3" height="142.8" fill="#c2410c"/>
<rect x="746.2" y="490.4" width="10.3" height="81.6" fill="#c2410c"/>
<rect x="760.7" y="102.8" width="10.3" height="469.2" fill="#c2410c"/>
<rect x="775.3" y="572.0" width="10.3" height="0.0" fill="#cbd5e1"/>
<rect x="789.8" y="470.0" width="10.3" height="102.0" fill="#c2410c"/>
<rect x="804.4" y="347.6" width="10.3" height="224.4" fill="#c2410c"/>
<rect x="818.9" y="531.2" width="10.3" height="40.8" fill="#c2410c"/>
<rect x="833.5" y="531.2" width="10.3" height="40.8" fill="#c2410c"/>
<rect x="848.0" y="531.2" width="10.3" height="40.8" fill="#c2410c"/>
<rect x="862.6" y="388.4" width="10.3" height="183.6" fill="#c2410c"/>
<rect x="877.1" y="490.4" width="10.3" height="81.6" fill="#c2410c"/>
<rect x="891.7" y="449.6" width="10.3" height="122.4" fill="#c2410c"/>
<rect x="906.2" y="347.6" width="10.3" height="224.4" fill="#c2410c"/>
<rect x="920.8" y="470.0" width="10.3" height="102.0" fill="#c2410c"/>
<rect x="935.3" y="102.8" width="10.3" height="469.2" fill="#c2410c"/>
<rect x="949.9" y="408.8" width="10.3" height="163.2" fill="#c2410c"/>
<rect x="964.4" y="470.0" width="10.3" height="102.0" fill="#c2410c"/>
<rect x="979.0" y="245.6" width="10.3" height="326.4" fill="#c2410c"/>
<rect x="993.5" y="266.0" width="10.3" height="306.0" fill="#c2410c"/>
<rect x="1008.1" y="347.6" width="10.3" height="224.4" fill="#c2410c"/>
<rect x="1022.6" y="490.4" width="10.3" height="81.6" fill="#c2410c"/>
<rect x="1037.2" y="306.8" width="10.3" height="265.2" fill="#c2410c"/>
<rect x="1051.7" y="327.2" width="10.3" height="244.8" fill="#c2410c"/>
<rect x="1066.3" y="449.6" width="10.3" height="122.4" fill="#c2410c"/>
<rect x="1080.8" y="347.6" width="10.3" height="224.4" fill="#c2410c"/>
</svg>