<svg xmlns="http://www.w3.org/2000/svg" width="1120" height="650" viewBox="0 0 1120 650">
<style>
text{font-family:Inter,Segoe UI,Arial,sans-serif;fill:#1f2933}
.title{font-size:26px;font-weight:700}.subtitle{font-size:14px;fill:#52606d}
.axis{stroke:#52606d;stroke-width:1}.grid{stroke:#d9e2ec;stroke-width:1}
.tick{font-size:12px;fill:#52606d}.legend{font-size:13px;fill:#334e68}
</style>
<rect width="1120" height="650" fill="#fbfcfe"/>
<text x="82" y="34" class="title">Germany days over 42 C</text>
<text x="82" y="55" class="subtitle">Calendar days per year where at least one DWD station reported TXK &gt; 42 C</text>
<line x1="82" y1="572" x2="1086" y2="572" class="axis"/>
<line x1="82" y1="62" x2="82" y2="572" class="axis"/>
<line x1="82" y1="572.0" x2="1086" y2="572.0" class="grid"/>
<text x="72" y="576.0" text-anchor="end" class="tick">0</text>
<line x1="82" y1="470.0" x2="1086" y2="470.0" class="grid"/>
<text x="72" y="474.0" text-anchor="end" class="tick">0.2</text>
<line x1="82" y1="368.0" x2="1086" y2="368.0" class="grid"/>
<text x="72" y="372.0" text-anchor="end" class="tick">0.4</text>
<line x1="82" y1="266.0" x2="1086" y2="266.0" class="grid"/>
<text x="72" y="270.0" text-anchor="end" class="tick">0.6</text>
<line x1="82" y1="164.0" x2="1086" y2="164.0" class="grid"/>
<text x="72" y="168.0" text-anchor="end" class="tick">0.8</text>
<line x1="82" y1="62.0" x2="1086" y2="62.0" class="grid"/>
<text x="72" y="66.0" text-anchor="end" class="tick">1</text>
<line x1="82.0" y1="572" x2="82.0" y2="578" class="axis"/>
<text x="82.0" y="596" text-anchor="middle" class="tick">1906</text>
<line x1="115.7" y1="572" x2="115.7" y2="578" class="axis"/>
<text x="115.7" y="596" text-anchor="middle" class="tick">1910</text>
<line x1="200.1" y1="572" x2="200.1" y2="578" class="axis"/>
<text x="200.1" y="596" text-anchor="middle" class="tick">1920</text>
<line x1="284.5" y1="572" x2="284.5" y2="578" class="axis"/>
<text x="284.5" y="596" text-anchor="middle" class="tick">1930</text>
<line x1="368.9" y1="572" x2="368.9" y2="578" class="axis"/>
<text x="368.9" y="596" text-anchor="middle" class="tick">1940</text>
<line x1="453.2" y1="572" x2="453.2" y2="578" class="axis"/>
<text x="453.2" y="596" text-anchor="middle" class="tick">1950</text>
<line x1="537.6" y1="572" x2="537.6" y2="578" class="axis"/>
<text x="537.6" y="596" text-anchor="middle" class="tick">1960</text>
<line x1="622.0" y1="572" x2="622.0" y2="578" class="axis"/>
<text x="622.0" y="596" text-anchor="middle" class="tick">1970</text>
<line x1="706.3" y1="572" x2="706.3" y2="578" class="axis"/>
<text x="706.3" y="596" text-anchor="middle" class="tick">1980</text>
<line x1="790.7" y1="572" x2="790.7" y2="578" class="axis"/>
<text x="790.7" y="596" text-anchor="middle" class="tick">1990</text>
<line x1="875.1" y1="572" x2="875.1" y2="578" class="axis"/>
<text x="875.1" y="596" text-anchor="middle" class="tick">2000</text>
<line x1="959.4" y1="572" x2="959.4" y2="578" class="axis"/>
<text x="959.4" y="596" text-anchor="middle" class="tick">2010</text>
<line x1="1043.8" y1="572" x2="1043.8" y2="578" class="axis"/>
<text x="1043.8" y="596" text-anchor="middle" class="tick">2020</text>
<line x1="1086.0" y1="572" x2="1086.0" y2="578" class="axis"/>
<text x="1086.0" y="596" text-anchor="middle" class="tick">2025</text>
<text transform="translate(22 317.0) rotate(-90)" text-anchor="middle" class="tick">days</text>
<rect x="79.0" y="572.0" width="6.0" height="0.0" fill="#cbd5e1"/>
<rect x="87.4" y="572.0" width="6.0" height="0.0" fill="#cbd5e1"/>
<rect x="95.9" y="572.0" width="6.0" height="0.0" fill="#cbd5e1"/>
<rect x="104.3" y="572.0" width="6.0" height="0.0" fill="#cbd5e1"/>
<rect x="112.7" y="572.0" width="6.0" height="0.0" fill="#cbd5e1"/>
<rect x="121.2" y="572.0" width="6.0" height="0.0" fill="#cbd5e1"/>
<rect x="129.6" y="572.0" width="6.0" height="0.0" fill="#cbd5e1"/>
<rect x="138.0" y="572.0" width="6.0" height="0.0" fill="#cbd5e1"/>
<rect x="146.5" y="572.0" width="6.0" height="0.0" fill="#cbd5e1"/>
<rect x="154.9" y="572.0" width="6.0" height="0.0" fill="#cbd5e1"/>
<rect x="163.4" y="572.0" width="6.0" height="0.0" fill="#cbd5e1"/>
<rect x="171.8" y="572.0" width="6.0" height="0.0" fill="#cbd5e1"/>
<rect x="180.2" y="572.0" width="6.0" height="0.0" fill="#cbd5e1"/>
<rect x="188.7" y="572.0" width="6.0" height="0.0" fill="#cbd5e1"/>
<rect x="197.1" y="572.0" width="6.0" height="0.0" fill="#cbd5e1"/>
<rect x="205.5" y="572.0" width="6.0" height="0.0" fill="#cbd5e1"/>
<rect x="214.0" y="572.0" width="6.0" height="0.0" fill="#cbd5e1"/>
<rect x="222.4" y="572.0" width="6.0" height="0.0" fill="#cbd5e1"/>
<rect x="230.9" y="572.0" width="6.0" height="0.0" fill="#cbd5e1"/>
<rect x="239.3" y="572.0" width="6.0" height="0.0" fill="#cbd5e1"/>
<rect x="247.7" y="572.0" width="6.0" height="0.0" fill="#cbd5e1"/>
<rect x="256.2" y="572.0" width="6.0" height="0.0" fill="#cbd5e1"/>
<rect x="264.6" y="572.0" width="6.0" height="0.0" fill="#cbd5e1"/>
<rect x="273.0" y="572.0" width="6.0" height="0.0" fill="#cbd5e1"/>
<rect x="281.5" y="572.0" width="6.0" height="0.0" fill="#cbd5e1"/>
<rect x="289.9" y="572.0" width="6.0" height="0.0" fill="#cbd5e1"/>
<rect x="298.3" y="572.0" width="6.0" height="0.0" fill="#cbd5e1"/>
<rect x="306.8" y="572.0" width="6.0" height="0.0" fill="#cbd5e1"/>
<rect x="315.2" y="572.0" width="6.0" height="0.0" fill="#cbd5e1"/>
<rect x="323.7" y="572.0" width="6.0" height="0.0" fill="#cbd5e1"/>
<rect x="332.1" y="572.0" width="6.0" height="0.0" fill="#cbd5e1"/>
<rect x="340.5" y="572.0" width="6.0" height="0.0" fill="#cbd5e1"/>
<rect x="349.0" y="572.0" width="6.0" height="0.0" fill="#cbd5e1"/>
<rect x="357.4" y="572.0" width="6.0" height="0.0" fill="#cbd5e1"/>
<rect x="365.8" y="572.0" width="6.0" height="0.0" fill="#cbd5e1"/>
<rect x="374.3" y="572.0" width="6.0" height="0.0" fill="#cbd5e1"/>
<rect x="382.7" y="572.0" width="6.0" height="0.0" fill="#cbd5e1"/>
<rect x="391.2" y="572.0" width="6.0" height="0.0" fill="#cbd5e1"/>
<rect x="399.6" y="572.0" width="6.0" height="0.0" fill="#cbd5e1"/>
<rect x="408.0" y="572.0" width="6.0" height="0.0" fill="#cbd5e1"/>
<rect x="416.5" y="572.0" width="6.0" height="0.0" fill="#cbd5e1"/>
<rect x="424.9" y="572.0" width="6.0" height="0.0" fill="#cbd5e1"/>
<rect x="433.3" y="572.0" width="6.0" height="0.0" fill="#cbd5e1"/>
<rect x="441.8" y="572.0" width="6.0" height="0.0" fill="#cbd5e1"/>
<rect x="450.2" y="572.0" width="6.0" height="0.0" fill="#cbd5e1"/>
<rect x="458.7" y="572.0" width="6.0" height="0.0" fill="#cbd5e1"/>
<rect x="467.1" y="572.0" width="6.0" height="0.0" fill="#cbd5e1"/>
<rect x="475.5" y="572.0" width="6.0" height="0.0" fill="#cbd5e1"/>
<rect x="484.0" y="572.0" width="6.0" height="0.0" fill="#cbd5e1"/>
<rect x="492.4" y="572.0" width="6.0" height="0.0" fill="#cbd5e1"/>
<rect x="500.8" y="572.0" width="6.0" height="0.0" fill="#cbd5e1"/>
<rect x="509.3" y="572.0" width="6.0" height="0.0" fill="#cbd5e1"/>
<rect x="517.7" y="572.0" width="6.0" height="0.0" fill="#cbd5e1"/>
<rect x="526.1" y="572.0" width="6.0" height="0.0" fill="#cbd5e1"/>
<rect x="534.6" y="572.0" width="6.0" height="0.0" fill="#cbd5e1"/>
<rect x="543.0" y="572.0" width="6.0" height="0.0" fill="#cbd5e1"/>
<rect x="551.5" y="572.0" width="6.0" height="0.0" fill="#cbd5e1"/>
<rect x="559.9" y="572.0" width="6.0" height="0.0" fill="#cbd5e1"/>
<rect x="568.3" y="572.0" width="6.0" height="0.0" fill="#cbd5e1"/>
<rect x="576.8" y="572.0" width="6.0" height="0.0" fill="#cbd5e1"/>
<rect x="585.2" y="572.0" width="6.0" height="0.0" fill="#cbd5e1"/>
<rect x="593.6" y="572.0" width="6.0" height="0.0" fill="#cbd5e1"/>
<rect x="602.1" y="572.0" width="6.0" height="0.0" fill="#cbd5e1"/>
<rect x="610.5" y="572.0" width="6.0" height="0.0" fill="#cbd5e1"/>
<rect x="619.0" y="572.0" width="6.0" height="0.0" fill="#cbd5e1"/>
<rect x="627.4" y="572.0" width="6.0" height="0.0" fill="#cbd5e1"/>
<rect x="635.8" y="572.0" width="6.0" height="0.0" fill="#cbd5e1"/>
<rect x="644.3" y="572.0" width="6.0" height="0.0" fill="#cbd5e1"/>
<rect x="652.7" y="572.0" width="6.0" height="0.0" fill="#cbd5e1"/>
<rect x="661.1" y="572.0" width="6.0" height="0.0" fill="#cbd5e1"/>
<rect x="669.6" y="572.0" width="6.0" height="0.0" fill="#cbd5e1"/>
<rect x="678.0" y="572.0" width="6.0" height="0.0" fill="#cbd5e1"/>
<rect x="686.5" y="572.0" width="6.0" height="0.0" fill="#cbd5e1"/>
<rect x="694.9" y="572.0" width="6.0" height="0.0" fill="#cbd5e1"/>
<rect x="703.3" y="572.0" width="6.0" height="0.0" fill="#cbd5e1"/>
<rect x="711.8" y="572.0" width="6.0" height="0.0" fill="#cbd5e1"/>
<rect x="720.2" y="572.0" width="6.0" height="0.0" fill="#cbd5e1"/>
<rect x="728.6" y="572.0" width="6.0" height="0.0" fill="#cbd5e1"/>
<rect x="737.1" y="572.0" width="6.0" height="0.0" fill="#cbd5e1"/>
<rect x="745.5" y="572.0" width="6.0" height="0.0" fill="#cbd5e1"/>
<rect x="753.9" y="572.0" width="6.0" height="0.0" fill="#cbd5e1"/>
<rect x="762.4" y="572.0" width="6.0" height="0.0" fill="#cbd5e1"/>
<rect x="770.8" y="572.0" width="6.0" height="0.0" fill="#cbd5e1"/>
<rect x="779.3" y="572.0" width="6.0" height="0.0" fill="#cbd5e1"/>
<rect x="787.7" y="572.0" width="6.0" height="0.0" fill="#cbd5e1"/>
<rect x="796.1" y="572.0" width="6.0" height="0.0" fill="#cbd5e1"/>
<rect x="804.6" y="572.0" width="6.0" height="0.0" fill="#cbd5e1"/>
<rect x="813.0" y="572.0" width="6.0" height="0.0" fill="#cbd5e1"/>
<rect x="821.4" y="572.0" width="6.0" height="0.0" fill="#cbd5e1"/>
<rect x="829.9" y="572.0" width="6.0" height="0.0" fill="#cbd5e1"/>
<rect x="838.3" y="572.0" width="6.0" height="0.0" fill="#cbd5e1"/>
<rect x="846.8" y="572.0" width="6.0" height="0.0" fill="#cbd5e1"/>
<rect x="855.2" y="572.0" width="6.0" height="0.0" fill="#cbd5e1"/>
<rect x="863.6" y="572.0" width="6.0" height="0.0" fill="#cbd5e1"/>
<rect x="872.1" y="572.0" width="6.0" height="0.0" fill="#cbd5e1"/>
<rect x="880.5" y="572.0" width="6.0" height="0.0" fill="#cbd5e1"/>
<rect x="888.9" y="572.0" width="6.0" height="0.0" fill="#cbd5e1"/>
<rect x="897.4" y="572.0" width="6.0" height="0.0" fill="#cbd5e1"/>
<rect x="905.8" y="572.0" width="6.0" height="0.0" fill="#cbd5e1"/>
<rect x="914.2" y="572.0" width="6.0" height="0.0" fill="#cbd5e1"/>
<rect x="922.7" y="572.0" width="6.0" height="0.0" fill="#cbd5e1"/>
<rect x="931.1" y="572.0" width="6.0" height="0.0" fill="#cbd5e1"/>
<rect x="939.6" y="572.0" width="6.0" height="0.0" fill="#cbd5e1"/>
<rect x="948.0" y="572.0" width="6.0" height="0.0" fill="#cbd5e1"/>
<rect x="956.4" y="572.0" width="6.0" height="0.0" fill="#cbd5e1"/>
<rect x="964.9" y="572.0" width="6.0" height="0.0" fill="#cbd5e1"/>
<rect x="973.3" y="572.0" width="6.0" height="0.0" fill="#cbd5e1"/>
<rect x="981.7" y="572.0" width="6.0" height="0.0" fill="#cbd5e1"/>
<rect x="990.2" y="572.0" width="6.0" height="0.0" fill="#cbd5e1"/>
<rect x="998.6" y="572.0" width="6.0" height="0.0" fill="#cbd5e1"/>
<rect x="1007.1" y="572.0" width="6.0" height="0.0" fill="#cbd5e1"/>
<rect x="1015.5" y="572.0" width="6.0" height="0.0" fill="#cbd5e1"/>
<rect x="1023.9" y="572.0" width="6.0" height="0.0" fill="#cbd5e1"/>
<rect x="1032.4" y="572.0" width="6.0" height="0.0" fill="#cbd5e1"/>
<rect x="1040.8" y="572.0" width="6.0" height="0.0" fill="#cbd5e1"/>
<rect x="1049.2" y="572.0" width="6.0" height="0.0" fill="#cbd5e1"/>
<rect x="1057.7" y="572.0" width="6.0" height="0.0" fill="#cbd5e1"/>
<rect x="1066.1" y="572.0" width="6.0" height="0.0" fill="#cbd5e1"/>
<rect x="1074.6" y="572.0" width="6.0" height="0.0" fill="#cbd5e1"/>
<rect x="1083.0" y="572.0" width="6.0" height="0.0" fill="#cbd5e1"/>
</svg>