<svg xmlns="http://www.w3.org/2000/svg" width="1120" height="650" viewBox="0 0 1120 650">
<style>
text{font-family:Inter,Segoe UI,Arial,sans-serif;fill:#1f2933}
.title{font-size:26px;font-weight:700}.subtitle{font-size:14px;fill:#52606d}
.axis{stroke:#52606d;stroke-width:1}.grid{stroke:#d9e2ec;stroke-width:1}
.tick{font-size:12px;fill:#52606d}.legend{font-size:13px;fill:#334e68}
</style>
<rect width="1120" height="650" fill="#fbfcfe"/>
<text x="82" y="34" class="title">Germany 10-year temperature anomalies</text>
<text x="82" y="55" class="subtitle">Period means relative to the 1976-2005 baseline</text>
<line x1="82" y1="572" x2="1086" y2="572" class="axis"/>
<line x1="82" y1="62" x2="82" y2="572" class="axis"/>
<line x1="82" y1="572.0" x2="1086" y2="572.0" class="grid"/>
<text x="72" y="576.0" text-anchor="end" class="tick">-1.5</text>
<line x1="82" y1="499.1" x2="1086" y2="499.1" class="grid"/>
<text x="72" y="503.1" text-anchor="end" class="tick">-1</text>
<line x1="82" y1="426.3" x2="1086" y2="426.3" class="grid"/>
<text x="72" y="430.3" text-anchor="end" class="tick">-0.5</text>
<line x1="82" y1="353.4" x2="1086" y2="353.4" class="grid"/>
<text x="72" y="357.4" text-anchor="end" class="tick">0</text>
<line x1="82" y1="280.6" x2="1086" y2="280.6" class="grid"/>
<text x="72" y="284.6" text-anchor="end" class="tick">0.5</text>
<line x1="82" y1="207.7" x2="1086" y2="207.7" class="grid"/>
<text x="72" y="211.7" text-anchor="end" class="tick">1</text>
<line x1="82" y1="134.9" x2="1086" y2="134.9" class="grid"/>
<text x="72" y="138.9" text-anchor="end" class="tick">1.5</text>
<line x1="82" y1="62.0" x2="1086" y2="62.0" class="grid"/>
<text x="72" y="66.0" text-anchor="end" class="tick">2</text>
<line x1="123.8" y1="572" x2="123.8" y2="578" class="axis"/>
<text x="123.8" y="596" text-anchor="middle" class="tick">1906-15</text>
<line x1="207.5" y1="572" x2="207.5" y2="578" class="axis"/>
<text x="207.5" y="596" text-anchor="middle" class="tick">1916-25</text>
<line x1="291.2" y1="572" x2="291.2" y2="578" class="axis"/>
<text x="291.2" y="596" text-anchor="middle" class="tick">1926-35</text>
<line x1="374.8" y1="572" x2="374.8" y2="578" class="axis"/>
<text x="374.8" y="596" text-anchor="middle" class="tick">1936-45</text>
<line x1="458.5" y1="572" x2="458.5" y2="578" class="axis"/>
<text x="458.5" y="596" text-anchor="middle" class="tick">1946-55</text>
<line x1="542.2" y1="572" x2="542.2" y2="578" class="axis"/>
<text x="542.2" y="596" text-anchor="middle" class="tick">1956-65</text>
<line x1="625.8" y1="572" x2="625.8" y2="578" class="axis"/>
<text x="625.8" y="596" text-anchor="middle" class="tick">1966-75</text>
<line x1="709.5" y1="572" x2="709.5" y2="578" class="axis"/>
<text x="709.5" y="596" text-anchor="middle" class="tick">1976-85</text>
<line x1="793.2" y1="572" x2="793.2" y2="578" class="axis"/>
<text x="793.2" y="596" text-anchor="middle" class="tick">1986-95</text>
<line x1="876.8" y1="572" x2="876.8" y2="578" class="axis"/>
<text x="876.8" y="596" text-anchor="middle" class="tick">1996-05</text>
<line x1="960.5" y1="572" x2="960.5" y2="578" class="axis"/>
<text x="960.5" y="596" text-anchor="middle" class="tick">2006-15</text>
<line x1="1044.2" y1="572" x2="1044.2" y2="578" class="axis"/>
<text x="1044.2" y="596" text-anchor="middle" class="tick">2016-25</text>
<text transform="translate(22 317.0) rotate(-90)" text-anchor="middle" class="tick">degrees C vs baseline</text>
<line x1="82" y1="353.4" x2="1086" y2="353.4" stroke="#334e68" stroke-width="1.5"/>
<rect x="97.6" y="353.4" width="23.4" height="81.6" fill="#0f766e"/>
<rect x="126.6" y="353.4" width="23.4" height="139.9" fill="#2563eb"/>
<rect x="181.3" y="353.4" width="23.4" height="91.8" fill="#0f766e"/>
<rect x="210.3" y="353.4" width="23.4" height="154.5" fill="#2563eb"/>
<rect x="264.9" y="353.4" width="23.4" height="59.7" fill="#0f766e"/>
<rect x="294.0" y="353.4" width="23.4" height="81.6" fill="#2563eb"/>
<rect x="348.6" y="353.4" width="23.4" height="83.1" fill="#0f766e"/>
<rect x="377.6" y="353.4" width="23.4" height="69.9" fill="#2563eb"/>
<rect x="432.3" y="353.4" width="23.4" height="33.5" fill="#0f766e"/>
<rect x="461.3" y="353.4" width="23.4" height="16.0" fill="#2563eb"/>
<rect x="515.9" y="353.4" width="23.4" height="100.5" fill="#0f766e"/>
<rect x="545.0" y="353.4" width="23.4" height="155.9" fill="#2563eb"/>
<rect x="599.6" y="353.4" width="23.4" height="52.5" fill="#0f766e"/>
<rect x="628.6" y="353.4" width="23.4" height="80.1" fill="#2563eb"/>
<rect x="683.3" y="353.4" width="23.4" height="72.9" fill="#0f766e"/>
<rect x="712.3" y="353.4" width="23.4" height="109.3" fill="#2563eb"/>
<rect x="766.9" y="333.0" width="23.4" height="20.4" fill="#0f766e"/>
<rect x="796.0" y="322.8" width="23.4" height="30.6" fill="#2563eb"/>
<rect x="850.6" y="301.0" width="23.4" height="52.5" fill="#0f766e"/>
<rect x="879.6" y="276.2" width="23.4" height="77.2" fill="#2563eb"/>
<rect x="934.3" y="254.3" width="23.4" height="99.1" fill="#0f766e"/>
<rect x="963.3" y="229.6" width="23.4" height="123.9" fill="#2563eb"/>
<rect x="1017.9" y="139.2" width="23.4" height="214.2" fill="#0f766e"/>
<rect x="1047.0" y="92.6" width="23.4" height="260.8" fill="#2563eb"/>
<rect x="760" y="78" width="14" height="10" fill="#0f766e"/>
<text x="782" y="88" class="legend">Annual mean temperature anomaly</text>
<rect x="760" y="100" width="14" height="10" fill="#2563eb"/>
<text x="782" y="110" class="legend">TXK p95 anomaly</text>
<line x1="82" y1="572" x2="1086" y2="572" class="axis"/>
</svg>