<svg xmlns="http://www.w3.org/2000/svg" width="1120" height="650" viewBox="0 0 1120 650">
<style>
text{font-family:Inter,Segoe UI,Arial,sans-serif;fill:#1f2933}
.title{font-size:26px;font-weight:700}.subtitle{font-size:14px;fill:#52606d}
.axis{stroke:#52606d;stroke-width:1}.grid{stroke:#d9e2ec;stroke-width:1}
.tick{font-size:12px;fill:#52606d}.legend{font-size:13px;fill:#334e68}
</style>
<rect width="1120" height="650" fill="#fbfcfe"/>
<text x="82" y="34" class="title">Germany 10-year temperature anomalies</text>
<text x="82" y="55" class="subtitle">Period means relative to the 1976-2005 baseline</text>
<line x1="82" y1="572" x2="1086" y2="572" class="axis"/>
<line x1="82" y1="62" x2="82" y2="572" class="axis"/>
<line x1="82" y1="572.0" x2="1086" y2="572.0" class="grid"/>
<text x="72" y="576.0" text-anchor="end" class="tick">-1.5</text>
<line x1="82" y1="499.1" x2="1086" y2="499.1" class="grid"/>
<text x="72" y="503.1" text-anchor="end" class="tick">-1</text>
<line x1="82" y1="426.3" x2="1086" y2="426.3" class="grid"/>
<text x="72" y="430.3" text-anchor="end" class="tick">-0.5</text>
<line x1="82" y1="353.4" x2="1086" y2="353.4" class="grid"/>
<text x="72" y="357.4" text-anchor="end" class="tick">0</text>
<line x1="82" y1="280.6" x2="1086" y2="280.6" class="grid"/>
<text x="72" y="284.6" text-anchor="end" class="tick">0.5</text>
<line x1="82" y1="207.7" x2="1086" y2="207.7" class="grid"/>
<text x="72" y="211.7" text-anchor="end" class="tick">1</text>
<line x1="82" y1="134.9" x2="1086" y2="134.9" class="grid"/>
<text x="72" y="138.9" text-anchor="end" class="tick">1.5</text>
<line x1="82" y1="62.0" x2="1086" y2="62.0" class="grid"/>
<text x="72" y="66.0" text-anchor="end" class="tick">2</text>
<line x1="153.7" y1="572" x2="153.7" y2="578" class="axis"/>
<text x="153.7" y="596" text-anchor="middle" class="tick">1956-65</text>
<line x1="297.1" y1="572" x2="297.1" y2="578" class="axis"/>
<text x="297.1" y="596" text-anchor="middle" class="tick">1966-75</text>
<line x1="440.6" y1="572" x2="440.6" y2="578" class="axis"/>
<text x="440.6" y="596" text-anchor="middle" class="tick">1976-85</text>
<line x1="584.0" y1="572" x2="584.0" y2="578" class="axis"/>
<text x="584.0" y="596" text-anchor="middle" class="tick">1986-95</text>
<line x1="727.4" y1="572" x2="727.4" y2="578" class="axis"/>
<text x="727.4" y="596" text-anchor="middle" class="tick">1996-05</text>
<line x1="870.9" y1="572" x2="870.9" y2="578" class="axis"/>
<text x="870.9" y="596" text-anchor="middle" class="tick">2006-15</text>
<line x1="1014.3" y1="572" x2="1014.3" y2="578" class="axis"/>
<text x="1014.3" y="596" text-anchor="middle" class="tick">2016-25</text>
<text transform="translate(22 317.0) rotate(-90)" text-anchor="middle" class="tick">degrees C vs baseline</text>
<line x1="82" y1="353.4" x2="1086" y2="353.4" stroke="#334e68" stroke-width="1.5"/>
<rect x="108.7" y="353.4" width="40.2" height="100.5" fill="#0f766e"/>
<rect x="158.5" y="353.4" width="40.2" height="155.9" fill="#2563eb"/>
<rect x="252.2" y="353.4" width="40.2" height="52.5" fill="#0f766e"/>
<rect x="302.0" y="353.4" width="40.2" height="80.1" fill="#2563eb"/>
<rect x="395.6" y="353.4" width="40.2" height="72.9" fill="#0f766e"/>
<rect x="445.4" y="353.4" width="40.2" height="109.3" fill="#2563eb"/>
<rect x="539.0" y="333.0" width="40.2" height="20.4" fill="#0f766e"/>
<rect x="588.8" y="322.8" width="40.2" height="30.6" fill="#2563eb"/>
<rect x="682.4" y="301.0" width="40.2" height="52.5" fill="#0f766e"/>
<rect x="732.2" y="276.2" width="40.2" height="77.2" fill="#2563eb"/>
<rect x="825.9" y="254.3" width="40.2" height="99.1" fill="#0f766e"/>
<rect x="875.7" y="229.6" width="40.2" height="123.9" fill="#2563eb"/>
<rect x="969.3" y="139.2" width="40.2" height="214.2" fill="#0f766e"/>
<rect x="1019.1" y="92.6" width="40.2" height="260.8" fill="#2563eb"/>
<rect x="760" y="78" width="14" height="10" fill="#0f766e"/>
<text x="782" y="88" class="legend">Annual mean temperature anomaly</text>
<rect x="760" y="100" width="14" height="10" fill="#2563eb"/>
<text x="782" y="110" class="legend">TXK p95 anomaly</text>
<line x1="82" y1="572" x2="1086" y2="572" class="axis"/>
</svg>