<svg xmlns="http://www.w3.org/2000/svg" width="1120" height="650" viewBox="0 0 1120 650">
<style>
text{font-family:Inter,Segoe UI,Arial,sans-serif;fill:#1f2933}
.title{font-size:26px;font-weight:700}.subtitle{font-size:14px;fill:#52606d}
.axis{stroke:#52606d;stroke-width:1}.grid{stroke:#d9e2ec;stroke-width:1}
.tick{font-size:12px;fill:#52606d}.legend{font-size:13px;fill:#334e68}
</style>
<rect width="1120" height="650" fill="#fbfcfe"/>
<text x="82" y="34" class="title">Germany hot-day thresholds by 10-year period</text>
<text x="82" y="55" class="subtitle">Total calendar days where at least one DWD station exceeded each TXK threshold</text>
<line x1="82" y1="572" x2="1086" y2="572" class="axis"/>
<line x1="82" y1="62" x2="82" y2="572" class="axis"/>
<line x1="82" y1="572.0" x2="1086" y2="572.0" class="grid"/>
<text x="72" y="576.0" text-anchor="end" class="tick">0</text>
<line x1="82" y1="487.0" x2="1086" y2="487.0" class="grid"/>
<text x="72" y="491.0" text-anchor="end" class="tick">20</text>
<line x1="82" y1="402.0" x2="1086" y2="402.0" class="grid"/>
<text x="72" y="406.0" text-anchor="end" class="tick">40</text>
<line x1="82" y1="317.0" x2="1086" y2="317.0" class="grid"/>
<text x="72" y="321.0" text-anchor="end" class="tick">60</text>
<line x1="82" y1="232.0" x2="1086" y2="232.0" class="grid"/>
<text x="72" y="236.0" text-anchor="end" class="tick">80</text>
<line x1="82" y1="147.0" x2="1086" y2="147.0" class="grid"/>
<text x="72" y="151.0" text-anchor="end" class="tick">100</text>
<line x1="82" y1="62.0" x2="1086" y2="62.0" class="grid"/>
<text x="72" y="66.0" text-anchor="end" class="tick">120</text>
<line x1="123.8" y1="572" x2="123.8" y2="578" class="axis"/>
<text x="123.8" y="596" text-anchor="middle" class="tick">1906-15</text>
<line x1="207.5" y1="572" x2="207.5" y2="578" class="axis"/>
<text x="207.5" y="596" text-anchor="middle" class="tick">1916-25</text>
<line x1="291.2" y1="572" x2="291.2" y2="578" class="axis"/>
<text x="291.2" y="596" text-anchor="middle" class="tick">1926-35</text>
<line x1="374.8" y1="572" x2="374.8" y2="578" class="axis"/>
<text x="374.8" y="596" text-anchor="middle" class="tick">1936-45</text>
<line x1="458.5" y1="572" x2="458.5" y2="578" class="axis"/>
<text x="458.5" y="596" text-anchor="middle" class="tick">1946-55</text>
<line x1="542.2" y1="572" x2="542.2" y2="578" class="axis"/>
<text x="542.2" y="596" text-anchor="middle" class="tick">1956-65</text>
<line x1="625.8" y1="572" x2="625.8" y2="578" class="axis"/>
<text x="625.8" y="596" text-anchor="middle" class="tick">1966-75</text>
<line x1="709.5" y1="572" x2="709.5" y2="578" class="axis"/>
<text x="709.5" y="596" text-anchor="middle" class="tick">1976-85</text>
<line x1="793.2" y1="572" x2="793.2" y2="578" class="axis"/>
<text x="793.2" y="596" text-anchor="middle" class="tick">1986-95</text>
<line x1="876.8" y1="572" x2="876.8" y2="578" class="axis"/>
<text x="876.8" y="596" text-anchor="middle" class="tick">1996-05</text>
<line x1="960.5" y1="572" x2="960.5" y2="578" class="axis"/>
<text x="960.5" y="596" text-anchor="middle" class="tick">2006-15</text>
<line x1="1044.2" y1="572" x2="1044.2" y2="578" class="axis"/>
<text x="1044.2" y="596" text-anchor="middle" class="tick">2016-25</text>
<text transform="translate(22 317.0) rotate(-90)" text-anchor="middle" class="tick">days per 10-year period</text>
<rect x="93.0" y="495.5" width="13.4" height="76.5" fill="#d97706"/>
<rect x="109.1" y="572.0" width="13.4" height="0.0" fill="#dc2626"/>
<rect x="125.2" y="572.0" width="13.4" height="0.0" fill="#7f1d1d"/>
<rect x="141.2" y="572.0" width="13.4" height="0.0" fill="#374151"/>
<rect x="176.7" y="478.5" width="13.4" height="93.5" fill="#d97706"/>
<rect x="192.8" y="572.0" width="13.4" height="0.0" fill="#dc2626"/>
<rect x="208.8" y="572.0" width="13.4" height="0.0" fill="#7f1d1d"/>
<rect x="224.9" y="572.0" width="13.4" height="0.0" fill="#374151"/>
<rect x="260.4" y="499.8" width="13.4" height="72.2" fill="#d97706"/>
<rect x="276.4" y="572.0" width="13.4" height="0.0" fill="#dc2626"/>
<rect x="292.5" y="572.0" width="13.4" height="0.0" fill="#7f1d1d"/>
<rect x="308.6" y="572.0" width="13.4" height="0.0" fill="#374151"/>
<rect x="344.0" y="465.8" width="13.4" height="106.2" fill="#d97706"/>
<rect x="360.1" y="572.0" width="13.4" height="0.0" fill="#dc2626"/>
<rect x="376.2" y="572.0" width="13.4" height="0.0" fill="#7f1d1d"/>
<rect x="392.2" y="572.0" width="13.4" height="0.0" fill="#374151"/>
<rect x="427.7" y="300.0" width="13.4" height="272.0" fill="#d97706"/>
<rect x="443.8" y="572.0" width="13.4" height="0.0" fill="#dc2626"/>
<rect x="459.8" y="572.0" width="13.4" height="0.0" fill="#7f1d1d"/>
<rect x="475.9" y="572.0" width="13.4" height="0.0" fill="#374151"/>
<rect x="511.4" y="448.8" width="13.4" height="123.2" fill="#d97706"/>
<rect x="527.4" y="572.0" width="13.4" height="0.0" fill="#dc2626"/>
<rect x="543.5" y="572.0" width="13.4" height="0.0" fill="#7f1d1d"/>
<rect x="559.6" y="572.0" width="13.4" height="0.0" fill="#374151"/>
<rect x="595.0" y="504.0" width="13.4" height="68.0" fill="#d97706"/>
<rect x="611.1" y="572.0" width="13.4" height="0.0" fill="#dc2626"/>
<rect x="627.2" y="572.0" width="13.4" height="0.0" fill="#7f1d1d"/>
<rect x="643.2" y="572.0" width="13.4" height="0.0" fill="#374151"/>
<rect x="678.7" y="431.8" width="13.4" height="140.2" fill="#d97706"/>
<rect x="694.8" y="572.0" width="13.4" height="0.0" fill="#dc2626"/>
<rect x="710.8" y="572.0" width="13.4" height="0.0" fill="#7f1d1d"/>
<rect x="726.9" y="572.0" width="13.4" height="0.0" fill="#374151"/>
<rect x="762.4" y="363.8" width="13.4" height="208.2" fill="#d97706"/>
<rect x="778.4" y="572.0" width="13.4" height="0.0" fill="#dc2626"/>
<rect x="794.5" y="572.0" width="13.4" height="0.0" fill="#7f1d1d"/>
<rect x="810.6" y="572.0" width="13.4" height="0.0" fill="#374151"/>
<rect x="846.0" y="334.0" width="13.4" height="238.0" fill="#d97706"/>
<rect x="862.1" y="559.2" width="13.4" height="12.8" fill="#dc2626"/>
<rect x="878.2" y="572.0" width="13.4" height="0.0" fill="#7f1d1d"/>
<rect x="894.2" y="572.0" width="13.4" height="0.0" fill="#374151"/>
<rect x="929.7" y="253.2" width="13.4" height="318.8" fill="#d97706"/>
<rect x="945.8" y="563.5" width="13.4" height="8.5" fill="#dc2626"/>
<rect x="961.8" y="572.0" width="13.4" height="0.0" fill="#7f1d1d"/>
<rect x="977.9" y="572.0" width="13.4" height="0.0" fill="#374151"/>
<rect x="1013.4" y="142.8" width="13.4" height="429.2" fill="#d97706"/>
<rect x="1029.4" y="559.2" width="13.4" height="12.8" fill="#dc2626"/>
<rect x="1045.5" y="567.8" width="13.4" height="4.2" fill="#7f1d1d"/>
<rect x="1061.6" y="572.0" width="13.4" height="0.0" fill="#374151"/>
<rect x="890" y="78" width="14" height="10" fill="#d97706"/>
<text x="912" y="88" class="legend">&gt; 35 C</text>
<rect x="890" y="100" width="14" height="10" fill="#dc2626"/>
<text x="912" y="110" class="legend">&gt; 40 C</text>
<rect x="890" y="122" width="14" height="10" fill="#7f1d1d"/>
<text x="912" y="132" class="legend">&gt; 41 C</text>
<rect x="890" y="144" width="14" height="10" fill="#374151"/>
<text x="912" y="154" class="legend">&gt; 42 C</text>
</svg>