<svg xmlns="http://www.w3.org/2000/svg" width="1120" height="650" viewBox="0 0 1120 650">
<style>
text{font-family:Inter,Segoe UI,Arial,sans-serif;fill:#1f2933}
.title{font-size:26px;font-weight:700}.subtitle{font-size:14px;fill:#52606d}
.axis{stroke:#52606d;stroke-width:1}.grid{stroke:#d9e2ec;stroke-width:1}
.tick{font-size:12px;fill:#52606d}.legend{font-size:13px;fill:#334e68}
</style>
<rect width="1120" height="650" fill="#fbfcfe"/>
<text x="82" y="34" class="title">Germany annual mean temperature</text>
<text x="82" y="55" class="subtitle">DWD Germany regional annual mean air temperature, complete years</text>
<line x1="82" y1="572" x2="1086" y2="572" class="axis"/>
<line x1="82" y1="62" x2="82" y2="572" class="axis"/>
<line x1="82" y1="572.0" x2="1086" y2="572.0" class="grid"/>
<text x="72" y="576.0" text-anchor="end" class="tick">6.5</text>
<line x1="82" y1="515.3" x2="1086" y2="515.3" class="grid"/>
<text x="72" y="519.3" text-anchor="end" class="tick">7</text>
<line x1="82" y1="458.7" x2="1086" y2="458.7" class="grid"/>
<text x="72" y="462.7" text-anchor="end" class="tick">7.5</text>
<line x1="82" y1="402.0" x2="1086" y2="402.0" class="grid"/>
<text x="72" y="406.0" text-anchor="end" class="tick">8</text>
<line x1="82" y1="345.3" x2="1086" y2="345.3" class="grid"/>
<text x="72" y="349.3" text-anchor="end" class="tick">8.5</text>
<line x1="82" y1="288.7" x2="1086" y2="288.7" class="grid"/>
<text x="72" y="292.7" text-anchor="end" class="tick">9</text>
<line x1="82" y1="232.0" x2="1086" y2="232.0" class="grid"/>
<text x="72" y="236.0" text-anchor="end" class="tick">9.5</text>
<line x1="82" y1="175.3" x2="1086" y2="175.3" class="grid"/>
<text x="72" y="179.3" text-anchor="end" class="tick">10</text>
<line x1="82" y1="118.7" x2="1086" y2="118.7" class="grid"/>
<text x="72" y="122.7" text-anchor="end" class="tick">10.5</text>
<line x1="82" y1="62.0" x2="1086" y2="62.0" class="grid"/>
<text x="72" y="66.0" text-anchor="end" class="tick">11</text>
<line x1="82.0" y1="572" x2="82.0" y2="578" class="axis"/>
<text x="82.0" y="596" text-anchor="middle" class="tick">1906</text>
<line x1="115.7" y1="572" x2="115.7" y2="578" class="axis"/>
<text x="115.7" y="596" text-anchor="middle" class="tick">1910</text>
<line x1="200.1" y1="572" x2="200.1" y2="578" class="axis"/>
<text x="200.1" y="596" text-anchor="middle" class="tick">1920</text>
<line x1="284.5" y1="572" x2="284.5" y2="578" class="axis"/>
<text x="284.5" y="596" text-anchor="middle" class="tick">1930</text>
<line x1="368.9" y1="572" x2="368.9" y2="578" class="axis"/>
<text x="368.9" y="596" text-anchor="middle" class="tick">1940</text>
<line x1="453.2" y1="572" x2="453.2" y2="578" class="axis"/>
<text x="453.2" y="596" text-anchor="middle" class="tick">1950</text>
<line x1="537.6" y1="572" x2="537.6" y2="578" class="axis"/>
<text x="537.6" y="596" text-anchor="middle" class="tick">1960</text>
<line x1="622.0" y1="572" x2="622.0" y2="578" class="axis"/>
<text x="622.0" y="596" text-anchor="middle" class="tick">1970</text>
<line x1="706.3" y1="572" x2="706.3" y2="578" class="axis"/>
<text x="706.3" y="596" text-anchor="middle" class="tick">1980</text>
<line x1="790.7" y1="572" x2="790.7" y2="578" class="axis"/>
<text x="790.7" y="596" text-anchor="middle" class="tick">1990</text>
<line x1="875.1" y1="572" x2="875.1" y2="578" class="axis"/>
<text x="875.1" y="596" text-anchor="middle" class="tick">2000</text>
<line x1="959.4" y1="572" x2="959.4" y2="578" class="axis"/>
<text x="959.4" y="596" text-anchor="middle" class="tick">2010</text>
<line x1="1043.8" y1="572" x2="1043.8" y2="578" class="axis"/>
<text x="1043.8" y="596" text-anchor="middle" class="tick">2020</text>
<line x1="1086.0" y1="572" x2="1086.0" y2="578" class="axis"/>
<text x="1086.0" y="596" text-anchor="middle" class="tick">2025</text>
<text transform="translate(22 317.0) rotate(-90)" text-anchor="middle" class="tick">degrees C</text>
<polyline points="82.0,369.1 90.4,424.7 98.9,462.1 107.3,475.7 115.7,355.5 124.2,283.0 132.6,417.9 141.1,341.9 149.5,343.1 157.9,412.2 166.4,351.0 174.8,454.1 183.2,341.9 191.7,479.1 200.1,330.6 208.6,288.7 217.0,493.8 225.4,403.1 233.9,455.3 242.3,365.7 250.7,318.1 259.2,397.5 267.6,362.3 276.1,474.5 284.5,315.9 292.9,453.0 301.4,364.6 309.8,445.1 318.2,227.5 326.7,354.4 335.1,358.9 343.5,335.1 352.0,334.0 360.4,368.0 368.9,557.3 377.3,497.2 385.7,483.6 394.2,302.3 402.6,369.1 411.0,290.9 419.5,358.9 427.9,344.2 436.4,283.0 444.8,272.8 453.2,334.0 461.7,320.4 470.1,408.8 478.5,295.5 487.0,436.0 495.4,454.1 503.8,533.5 512.3,336.3 520.7,378.2 529.2,285.3 537.6,355.5 546.0,295.5 554.5,498.3 562.9,504.0 571.3,387.3 579.8,460.9 588.2,344.2 596.7,301.1 605.1,385.0 613.5,430.3 622.0,434.9 630.4,353.3 638.8,422.4 647.3,378.2 655.7,309.1 664.2,296.6 672.6,348.7 681.0,326.1 689.5,425.8 697.9,433.7 706.3,443.9 714.8,380.5 723.2,300.0 731.6,284.1 740.1,405.4 748.5,467.7 757.0,409.9 765.4,465.5 773.8,281.9 782.3,235.4 790.7,233.1 799.1,362.3 807.6,246.7 816.0,348.7 824.5,209.3 832.9,300.0 841.3,492.7 849.8,301.1 858.2,281.9 866.6,233.1 875.1,190.1 883.5,286.4 891.9,225.2 900.4,245.6 908.8,295.5 917.3,289.8 925.7,227.5 934.1,192.3 942.6,234.3 951.0,268.3 959.4,419.0 967.9,216.1 976.3,278.5 984.8,321.5 993.2,137.9 1001.6,182.1 1010.1,226.3 1018.5,222.9 1026.9,124.3 1035.4,143.6 1043.8,126.6 1052.3,270.5 1060.7,116.4 1069.1,103.9 1077.6,74.5 1086.0,171.9" fill="none" stroke="#0f766e" stroke-width="3"/>
<circle cx="82.0" cy="369.1" r="2.8" fill="#0f766e"/>
<circle cx="90.4" cy="424.7" r="2.8" fill="#0f766e"/>
<circle cx="98.9" cy="462.1" r="2.8" fill="#0f766e"/>
<circle cx="107.3" cy="475.7" r="2.8" fill="#0f766e"/>
<circle cx="115.7" cy="355.5" r="2.8" fill="#0f766e"/>
<circle cx="124.2" cy="283.0" r="2.8" fill="#0f766e"/>
<circle cx="132.6" cy="417.9" r="2.8" fill="#0f766e"/>
<circle cx="141.1" cy="341.9" r="2.8" fill="#0f766e"/>
<circle cx="149.5" cy="343.1" r="2.8" fill="#0f766e"/>
<circle cx="157.9" cy="412.2" r="2.8" fill="#0f766e"/>
<circle cx="166.4" cy="351.0" r="2.8" fill="#0f766e"/>
<circle cx="174.8" cy="454.1" r="2.8" fill="#0f766e"/>
<circle cx="183.2" cy="341.9" r="2.8" fill="#0f766e"/>
<circle cx="191.7" cy="479.1" r="2.8" fill="#0f766e"/>
<circle cx="200.1" cy="330.6" r="2.8" fill="#0f766e"/>
<circle cx="208.6" cy="288.7" r="2.8" fill="#0f766e"/>
<circle cx="217.0" cy="493.8" r="2.8" fill="#0f766e"/>
<circle cx="225.4" cy="403.1" r="2.8" fill="#0f766e"/>
<circle cx="233.9" cy="455.3" r="2.8" fill="#0f766e"/>
<circle cx="242.3" cy="365.7" r="2.8" fill="#0f766e"/>
<circle cx="250.7" cy="318.1" r="2.8" fill="#0f766e"/>
<circle cx="259.2" cy="397.5" r="2.8" fill="#0f766e"/>
<circle cx="267.6" cy="362.3" r="2.8" fill="#0f766e"/>
<circle cx="276.1" cy="474.5" r="2.8" fill="#0f766e"/>
<circle cx="284.5" cy="315.9" r="2.8" fill="#0f766e"/>
<circle cx="292.9" cy="453.0" r="2.8" fill="#0f766e"/>
<circle cx="301.4" cy="364.6" r="2.8" fill="#0f766e"/>
<circle cx="309.8" cy="445.1" r="2.8" fill="#0f766e"/>
<circle cx="318.2" cy="227.5" r="2.8" fill="#0f766e"/>
<circle cx="326.7" cy="354.4" r="2.8" fill="#0f766e"/>
<circle cx="335.1" cy="358.9" r="2.8" fill="#0f766e"/>
<circle cx="343.5" cy="335.1" r="2.8" fill="#0f766e"/>
<circle cx="352.0" cy="334.0" r="2.8" fill="#0f766e"/>
<circle cx="360.4" cy="368.0" r="2.8" fill="#0f766e"/>
<circle cx="368.9" cy="557.3" r="2.8" fill="#0f766e"/>
<circle cx="377.3" cy="497.2" r="2.8" fill="#0f766e"/>
<circle cx="385.7" cy="483.6" r="2.8" fill="#0f766e"/>
<circle cx="394.2" cy="302.3" r="2.8" fill="#0f766e"/>
<circle cx="402.6" cy="369.1" r="2.8" fill="#0f766e"/>
<circle cx="411.0" cy="290.9" r="2.8" fill="#0f766e"/>
<circle cx="419.5" cy="358.9" r="2.8" fill="#0f766e"/>
<circle cx="427.9" cy="344.2" r="2.8" fill="#0f766e"/>
<circle cx="436.4" cy="283.0" r="2.8" fill="#0f766e"/>
<circle cx="444.8" cy="272.8" r="2.8" fill="#0f766e"/>
<circle cx="453.2" cy="334.0" r="2.8" fill="#0f766e"/>
<circle cx="461.7" cy="320.4" r="2.8" fill="#0f766e"/>
<circle cx="470.1" cy="408.8" r="2.8" fill="#0f766e"/>
<circle cx="478.5" cy="295.5" r="2.8" fill="#0f766e"/>
<circle cx="487.0" cy="436.0" r="2.8" fill="#0f766e"/>
<circle cx="495.4" cy="454.1" r="2.8" fill="#0f766e"/>
<circle cx="503.8" cy="533.5" r="2.8" fill="#0f766e"/>
<circle cx="512.3" cy="336.3" r="2.8" fill="#0f766e"/>
<circle cx="520.7" cy="378.2" r="2.8" fill="#0f766e"/>
<circle cx="529.2" cy="285.3" r="2.8" fill="#0f766e"/>
<circle cx="537.6" cy="355.5" r="2.8" fill="#0f766e"/>
<circle cx="546.0" cy="295.5" r="2.8" fill="#0f766e"/>
<circle cx="554.5" cy="498.3" r="2.8" fill="#0f766e"/>
<circle cx="562.9" cy="504.0" r="2.8" fill="#0f766e"/>
<circle cx="571.3" cy="387.3" r="2.8" fill="#0f766e"/>
<circle cx="579.8" cy="460.9" r="2.8" fill="#0f766e"/>
<circle cx="588.2" cy="344.2" r="2.8" fill="#0f766e"/>
<circle cx="596.7" cy="301.1" r="2.8" fill="#0f766e"/>
<circle cx="605.1" cy="385.0" r="2.8" fill="#0f766e"/>
<circle cx="613.5" cy="430.3" r="2.8" fill="#0f766e"/>
<circle cx="622.0" cy="434.9" r="2.8" fill="#0f766e"/>
<circle cx="630.4" cy="353.3" r="2.8" fill="#0f766e"/>
<circle cx="638.8" cy="422.4" r="2.8" fill="#0f766e"/>
<circle cx="647.3" cy="378.2" r="2.8" fill="#0f766e"/>
<circle cx="655.7" cy="309.1" r="2.8" fill="#0f766e"/>
<circle cx="664.2" cy="296.6" r="2.8" fill="#0f766e"/>
<circle cx="672.6" cy="348.7" r="2.8" fill="#0f766e"/>
<circle cx="681.0" cy="326.1" r="2.8" fill="#0f766e"/>
<circle cx="689.5" cy="425.8" r="2.8" fill="#0f766e"/>
<circle cx="697.9" cy="433.7" r="2.8" fill="#0f766e"/>
<circle cx="706.3" cy="443.9" r="2.8" fill="#0f766e"/>
<circle cx="714.8" cy="380.5" r="2.8" fill="#0f766e"/>
<circle cx="723.2" cy="300.0" r="2.8" fill="#0f766e"/>
<circle cx="731.6" cy="284.1" r="2.8" fill="#0f766e"/>
<circle cx="740.1" cy="405.4" r="2.8" fill="#0f766e"/>
<circle cx="748.5" cy="467.7" r="2.8" fill="#0f766e"/>
<circle cx="757.0" cy="409.9" r="2.8" fill="#0f766e"/>
<circle cx="765.4" cy="465.5" r="2.8" fill="#0f766e"/>
<circle cx="773.8" cy="281.9" r="2.8" fill="#0f766e"/>
<circle cx="782.3" cy="235.4" r="2.8" fill="#0f766e"/>
<circle cx="790.7" cy="233.1" r="2.8" fill="#0f766e"/>
<circle cx="799.1" cy="362.3" r="2.8" fill="#0f766e"/>
<circle cx="807.6" cy="246.7" r="2.8" fill="#0f766e"/>
<circle cx="816.0" cy="348.7" r="2.8" fill="#0f766e"/>
<circle cx="824.5" cy="209.3" r="2.8" fill="#0f766e"/>
<circle cx="832.9" cy="300.0" r="2.8" fill="#0f766e"/>
<circle cx="841.3" cy="492.7" r="2.8" fill="#0f766e"/>
<circle cx="849.8" cy="301.1" r="2.8" fill="#0f766e"/>
<circle cx="858.2" cy="281.9" r="2.8" fill="#0f766e"/>
<circle cx="866.6" cy="233.1" r="2.8" fill="#0f766e"/>
<circle cx="875.1" cy="190.1" r="2.8" fill="#0f766e"/>
<circle cx="883.5" cy="286.4" r="2.8" fill="#0f766e"/>
<circle cx="891.9" cy="225.2" r="2.8" fill="#0f766e"/>
<circle cx="900.4" cy="245.6" r="2.8" fill="#0f766e"/>
<circle cx="908.8" cy="295.5" r="2.8" fill="#0f766e"/>
<circle cx="917.3" cy="289.8" r="2.8" fill="#0f766e"/>
<circle cx="925.7" cy="227.5" r="2.8" fill="#0f766e"/>
<circle cx="934.1" cy="192.3" r="2.8" fill="#0f766e"/>
<circle cx="942.6" cy="234.3" r="2.8" fill="#0f766e"/>
<circle cx="951.0" cy="268.3" r="2.8" fill="#0f766e"/>
<circle cx="959.4" cy="419.0" r="2.8" fill="#0f766e"/>
<circle cx="967.9" cy="216.1" r="2.8" fill="#0f766e"/>
<circle cx="976.3" cy="278.5" r="2.8" fill="#0f766e"/>
<circle cx="984.8" cy="321.5" r="2.8" fill="#0f766e"/>
<circle cx="993.2" cy="137.9" r="2.8" fill="#0f766e"/>
<circle cx="1001.6" cy="182.1" r="2.8" fill="#0f766e"/>
<circle cx="1010.1" cy="226.3" r="2.8" fill="#0f766e"/>
<circle cx="1018.5" cy="222.9" r="2.8" fill="#0f766e"/>
<circle cx="1026.9" cy="124.3" r="2.8" fill="#0f766e"/>
<circle cx="1035.4" cy="143.6" r="2.8" fill="#0f766e"/>
<circle cx="1043.8" cy="126.6" r="2.8" fill="#0f766e"/>
<circle cx="1052.3" cy="270.5" r="2.8" fill="#0f766e"/>
<circle cx="1060.7" cy="116.4" r="2.8" fill="#0f766e"/>
<circle cx="1069.1" cy="103.9" r="2.8" fill="#0f766e"/>
<circle cx="1077.6" cy="74.5" r="2.8" fill="#0f766e"/>
<circle cx="1086.0" cy="171.9" r="2.8" fill="#0f766e"/>
<rect x="810" y="80" width="14" height="4" fill="#0f766e"/>
<text x="832" y="85" class="legend">Annual mean</text>
</svg>