<svg xmlns="http://www.w3.org/2000/svg" width="1120" height="650" viewBox="0 0 1120 650">
<style>
text{font-family:Inter,Segoe UI,Arial,sans-serif;fill:#1f2933}
.title{font-size:26px;font-weight:700}.subtitle{font-size:14px;fill:#52606d}
.axis{stroke:#52606d;stroke-width:1}.grid{stroke:#d9e2ec;stroke-width:1}
.tick{font-size:12px;fill:#52606d}.legend{font-size:13px;fill:#334e68}
</style>
<rect width="1120" height="650" fill="#fbfcfe"/>
<text x="82" y="34" class="title">Germany annual mean temperature</text>
<text x="82" y="55" class="subtitle">DWD Germany regional annual mean air temperature, complete years</text>
<line x1="82" y1="572" x2="1086" y2="572" class="axis"/>
<line x1="82" y1="62" x2="82" y2="572" class="axis"/>
<line x1="82" y1="572.0" x2="1086" y2="572.0" class="grid"/>
<text x="72" y="576.0" text-anchor="end" class="tick">6.5</text>
<line x1="82" y1="515.3" x2="1086" y2="515.3" class="grid"/>
<text x="72" y="519.3" text-anchor="end" class="tick">7</text>
<line x1="82" y1="458.7" x2="1086" y2="458.7" class="grid"/>
<text x="72" y="462.7" text-anchor="end" class="tick">7.5</text>
<line x1="82" y1="402.0" x2="1086" y2="402.0" class="grid"/>
<text x="72" y="406.0" text-anchor="end" class="tick">8</text>
<line x1="82" y1="345.3" x2="1086" y2="345.3" class="grid"/>
<text x="72" y="349.3" text-anchor="end" class="tick">8.5</text>
<line x1="82" y1="288.7" x2="1086" y2="288.7" class="grid"/>
<text x="72" y="292.7" text-anchor="end" class="tick">9</text>
<line x1="82" y1="232.0" x2="1086" y2="232.0" class="grid"/>
<text x="72" y="236.0" text-anchor="end" class="tick">9.5</text>
<line x1="82" y1="175.3" x2="1086" y2="175.3" class="grid"/>
<text x="72" y="179.3" text-anchor="end" class="tick">10</text>
<line x1="82" y1="118.7" x2="1086" y2="118.7" class="grid"/>
<text x="72" y="122.7" text-anchor="end" class="tick">10.5</text>
<line x1="82" y1="62.0" x2="1086" y2="62.0" class="grid"/>
<text x="72" y="66.0" text-anchor="end" class="tick">11</text>
<line x1="82.0" y1="572" x2="82.0" y2="578" class="axis"/>
<text x="82.0" y="596" text-anchor="middle" class="tick">1956</text>
<line x1="140.2" y1="572" x2="140.2" y2="578" class="axis"/>
<text x="140.2" y="596" text-anchor="middle" class="tick">1960</text>
<line x1="285.7" y1="572" x2="285.7" y2="578" class="axis"/>
<text x="285.7" y="596" text-anchor="middle" class="tick">1970</text>
<line x1="431.2" y1="572" x2="431.2" y2="578" class="axis"/>
<text x="431.2" y="596" text-anchor="middle" class="tick">1980</text>
<line x1="576.7" y1="572" x2="576.7" y2="578" class="axis"/>
<text x="576.7" y="596" text-anchor="middle" class="tick">1990</text>
<line x1="722.2" y1="572" x2="722.2" y2="578" class="axis"/>
<text x="722.2" y="596" text-anchor="middle" class="tick">2000</text>
<line x1="867.7" y1="572" x2="867.7" y2="578" class="axis"/>
<text x="867.7" y="596" text-anchor="middle" class="tick">2010</text>
<line x1="1013.2" y1="572" x2="1013.2" y2="578" class="axis"/>
<text x="1013.2" y="596" text-anchor="middle" class="tick">2020</text>
<line x1="1086.0" y1="572" x2="1086.0" y2="578" class="axis"/>
<text x="1086.0" y="596" text-anchor="middle" class="tick">2025</text>
<text transform="translate(22 317.0) rotate(-90)" text-anchor="middle" class="tick">degrees C</text>
<polyline points="82.0,533.5 96.6,336.3 111.1,378.2 125.7,285.3 140.2,355.5 154.8,295.5 169.3,498.3 183.9,504.0 198.4,387.3 213.0,460.9 227.5,344.2 242.1,301.1 256.6,385.0 271.2,430.3 285.7,434.9 300.3,353.3 314.8,422.4 329.4,378.2 343.9,309.1 358.5,296.6 373.0,348.7 387.6,326.1 402.1,425.8 416.7,433.7 431.2,443.9 445.8,380.5 460.3,300.0 474.9,284.1 489.4,405.4 504.0,467.7 518.5,409.9 533.1,465.5 547.6,281.9 562.2,235.4 576.7,233.1 591.3,362.3 605.8,246.7 620.4,348.7 634.9,209.3 649.5,300.0 664.0,492.7 678.6,301.1 693.1,281.9 707.7,233.1 722.2,190.1 736.8,286.4 751.3,225.2 765.9,245.6 780.4,295.5 795.0,289.8 809.5,227.5 824.1,192.3 838.6,234.3 853.2,268.3 867.7,419.0 882.3,216.1 896.8,278.5 911.4,321.5 925.9,137.9 940.5,182.1 955.0,226.3 969.6,222.9 984.1,124.3 998.7,143.6 1013.2,126.6 1027.8,270.5 1042.3,116.4 1056.9,103.9 1071.4,74.5 1086.0,171.9" fill="none" stroke="#0f766e" stroke-width="3"/>
<circle cx="82.0" cy="533.5" r="2.8" fill="#0f766e"/>
<circle cx="96.6" cy="336.3" r="2.8" fill="#0f766e"/>
<circle cx="111.1" cy="378.2" r="2.8" fill="#0f766e"/>
<circle cx="125.7" cy="285.3" r="2.8" fill="#0f766e"/>
<circle cx="140.2" cy="355.5" r="2.8" fill="#0f766e"/>
<circle cx="154.8" cy="295.5" r="2.8" fill="#0f766e"/>
<circle cx="169.3" cy="498.3" r="2.8" fill="#0f766e"/>
<circle cx="183.9" cy="504.0" r="2.8" fill="#0f766e"/>
<circle cx="198.4" cy="387.3" r="2.8" fill="#0f766e"/>
<circle cx="213.0" cy="460.9" r="2.8" fill="#0f766e"/>
<circle cx="227.5" cy="344.2" r="2.8" fill="#0f766e"/>
<circle cx="242.1" cy="301.1" r="2.8" fill="#0f766e"/>
<circle cx="256.6" cy="385.0" r="2.8" fill="#0f766e"/>
<circle cx="271.2" cy="430.3" r="2.8" fill="#0f766e"/>
<circle cx="285.7" cy="434.9" r="2.8" fill="#0f766e"/>
<circle cx="300.3" cy="353.3" r="2.8" fill="#0f766e"/>
<circle cx="314.8" cy="422.4" r="2.8" fill="#0f766e"/>
<circle cx="329.4" cy="378.2" r="2.8" fill="#0f766e"/>
<circle cx="343.9" cy="309.1" r="2.8" fill="#0f766e"/>
<circle cx="358.5" cy="296.6" r="2.8" fill="#0f766e"/>
<circle cx="373.0" cy="348.7" r="2.8" fill="#0f766e"/>
<circle cx="387.6" cy="326.1" r="2.8" fill="#0f766e"/>
<circle cx="402.1" cy="425.8" r="2.8" fill="#0f766e"/>
<circle cx="416.7" cy="433.7" r="2.8" fill="#0f766e"/>
<circle cx="431.2" cy="443.9" r="2.8" fill="#0f766e"/>
<circle cx="445.8" cy="380.5" r="2.8" fill="#0f766e"/>
<circle cx="460.3" cy="300.0" r="2.8" fill="#0f766e"/>
<circle cx="474.9" cy="284.1" r="2.8" fill="#0f766e"/>
<circle cx="489.4" cy="405.4" r="2.8" fill="#0f766e"/>
<circle cx="504.0" cy="467.7" r="2.8" fill="#0f766e"/>
<circle cx="518.5" cy="409.9" r="2.8" fill="#0f766e"/>
<circle cx="533.1" cy="465.5" r="2.8" fill="#0f766e"/>
<circle cx="547.6" cy="281.9" r="2.8" fill="#0f766e"/>
<circle cx="562.2" cy="235.4" r="2.8" fill="#0f766e"/>
<circle cx="576.7" cy="233.1" r="2.8" fill="#0f766e"/>
<circle cx="591.3" cy="362.3" r="2.8" fill="#0f766e"/>
<circle cx="605.8" cy="246.7" r="2.8" fill="#0f766e"/>
<circle cx="620.4" cy="348.7" r="2.8" fill="#0f766e"/>
<circle cx="634.9" cy="209.3" r="2.8" fill="#0f766e"/>
<circle cx="649.5" cy="300.0" r="2.8" fill="#0f766e"/>
<circle cx="664.0" cy="492.7" r="2.8" fill="#0f766e"/>
<circle cx="678.6" cy="301.1" r="2.8" fill="#0f766e"/>
<circle cx="693.1" cy="281.9" r="2.8" fill="#0f766e"/>
<circle cx="707.7" cy="233.1" r="2.8" fill="#0f766e"/>
<circle cx="722.2" cy="190.1" r="2.8" fill="#0f766e"/>
<circle cx="736.8" cy="286.4" r="2.8" fill="#0f766e"/>
<circle cx="751.3" cy="225.2" r="2.8" fill="#0f766e"/>
<circle cx="765.9" cy="245.6" r="2.8" fill="#0f766e"/>
<circle cx="780.4" cy="295.5" r="2.8" fill="#0f766e"/>
<circle cx="795.0" cy="289.8" r="2.8" fill="#0f766e"/>
<circle cx="809.5" cy="227.5" r="2.8" fill="#0f766e"/>
<circle cx="824.1" cy="192.3" r="2.8" fill="#0f766e"/>
<circle cx="838.6" cy="234.3" r="2.8" fill="#0f766e"/>
<circle cx="853.2" cy="268.3" r="2.8" fill="#0f766e"/>
<circle cx="867.7" cy="419.0" r="2.8" fill="#0f766e"/>
<circle cx="882.3" cy="216.1" r="2.8" fill="#0f766e"/>
<circle cx="896.8" cy="278.5" r="2.8" fill="#0f766e"/>
<circle cx="911.4" cy="321.5" r="2.8" fill="#0f766e"/>
<circle cx="925.9" cy="137.9" r="2.8" fill="#0f766e"/>
<circle cx="940.5" cy="182.1" r="2.8" fill="#0f766e"/>
<circle cx="955.0" cy="226.3" r="2.8" fill="#0f766e"/>
<circle cx="969.6" cy="222.9" r="2.8" fill="#0f766e"/>
<circle cx="984.1" cy="124.3" r="2.8" fill="#0f766e"/>
<circle cx="998.7" cy="143.6" r="2.8" fill="#0f766e"/>
<circle cx="1013.2" cy="126.6" r="2.8" fill="#0f766e"/>
<circle cx="1027.8" cy="270.5" r="2.8" fill="#0f766e"/>
<circle cx="1042.3" cy="116.4" r="2.8" fill="#0f766e"/>
<circle cx="1056.9" cy="103.9" r="2.8" fill="#0f766e"/>
<circle cx="1071.4" cy="74.5" r="2.8" fill="#0f766e"/>
<circle cx="1086.0" cy="171.9" r="2.8" fill="#0f766e"/>
<rect x="810" y="80" width="14" height="4" fill="#0f766e"/>
<text x="832" y="85" class="legend">Annual mean</text>
</svg>