<svg xmlns="http://www.w3.org/2000/svg" width="1120" height="650" viewBox="0 0 1120 650">
<style>
text{font-family:Inter,Segoe UI,Arial,sans-serif;fill:#1f2933}
.title{font-size:26px;font-weight:700}.subtitle{font-size:14px;fill:#52606d}
.axis{stroke:#52606d;stroke-width:1}.grid{stroke:#d9e2ec;stroke-width:1}
.tick{font-size:12px;fill:#52606d}.legend{font-size:13px;fill:#334e68}
</style>
<rect width="1120" height="650" fill="#fbfcfe"/>
<text x="82" y="34" class="title">Germany station heat extremes</text>
<text x="82" y="55" class="subtitle">DWD station-day TXK: annual maximum and 95th percentile</text>
<line x1="82" y1="572" x2="1086" y2="572" class="axis"/>
<line x1="82" y1="62" x2="82" y2="572" class="axis"/>
<line x1="82" y1="572.0" x2="1086" y2="572.0" class="grid"/>
<text x="72" y="576.0" text-anchor="end" class="tick">22.5</text>
<line x1="82" y1="508.2" x2="1086" y2="508.2" class="grid"/>
<text x="72" y="512.2" text-anchor="end" class="tick">25</text>
<line x1="82" y1="444.5" x2="1086" y2="444.5" class="grid"/>
<text x="72" y="448.5" text-anchor="end" class="tick">27.5</text>
<line x1="82" y1="380.8" x2="1086" y2="380.8" class="grid"/>
<text x="72" y="384.8" text-anchor="end" class="tick">30</text>
<line x1="82" y1="317.0" x2="1086" y2="317.0" class="grid"/>
<text x="72" y="321.0" text-anchor="end" class="tick">32.5</text>
<line x1="82" y1="253.2" x2="1086" y2="253.2" class="grid"/>
<text x="72" y="257.2" text-anchor="end" class="tick">35</text>
<line x1="82" y1="189.5" x2="1086" y2="189.5" class="grid"/>
<text x="72" y="193.5" text-anchor="end" class="tick">37.5</text>
<line x1="82" y1="125.8" x2="1086" y2="125.8" class="grid"/>
<text x="72" y="129.8" text-anchor="end" class="tick">40</text>
<line x1="82" y1="62.0" x2="1086" y2="62.0" class="grid"/>
<text x="72" y="66.0" text-anchor="end" class="tick">42.5</text>
<line x1="82.0" y1="572" x2="82.0" y2="578" class="axis"/>
<text x="82.0" y="596" text-anchor="middle" class="tick">1956</text>
<line x1="140.2" y1="572" x2="140.2" y2="578" class="axis"/>
<text x="140.2" y="596" text-anchor="middle" class="tick">1960</text>
<line x1="285.7" y1="572" x2="285.7" y2="578" class="axis"/>
<text x="285.7" y="596" text-anchor="middle" class="tick">1970</text>
<line x1="431.2" y1="572" x2="431.2" y2="578" class="axis"/>
<text x="431.2" y="596" text-anchor="middle" class="tick">1980</text>
<line x1="576.7" y1="572" x2="576.7" y2="578" class="axis"/>
<text x="576.7" y="596" text-anchor="middle" class="tick">1990</text>
<line x1="722.2" y1="572" x2="722.2" y2="578" class="axis"/>
<text x="722.2" y="596" text-anchor="middle" class="tick">2000</text>
<line x1="867.7" y1="572" x2="867.7" y2="578" class="axis"/>
<text x="867.7" y="596" text-anchor="middle" class="tick">2010</text>
<line x1="1013.2" y1="572" x2="1013.2" y2="578" class="axis"/>
<text x="1013.2" y="596" text-anchor="middle" class="tick">2020</text>
<line x1="1086.0" y1="572" x2="1086.0" y2="578" class="axis"/>
<text x="1086.0" y="596" text-anchor="middle" class="tick">2025</text>
<text transform="translate(22 317.0) rotate(-90)" text-anchor="middle" class="tick">degrees C</text>
<polyline points="82.0,304.2 96.6,143.6 111.1,263.4 125.7,148.7 140.2,255.8 154.8,263.4 169.3,227.8 183.9,189.5 198.4,197.1 213.0,215.0 227.5,222.6 242.1,240.5 256.6,258.4 271.2,240.5 285.7,266.0 300.3,202.2 314.8,248.1 329.4,273.6 343.9,179.3 358.5,243.1 373.0,181.9 387.6,276.2 402.1,294.1 416.7,278.8 431.2,245.6 445.8,278.8 460.3,222.6 474.9,125.8 489.4,181.9 504.0,181.9 518.5,189.5 533.1,253.2 547.6,243.1 562.2,194.6 576.7,184.4 591.3,181.9 605.8,143.6 620.4,268.6 634.9,151.2 649.5,194.6 664.0,250.7 678.6,250.7 693.1,161.4 707.7,222.6 722.2,176.8 736.8,212.4 751.3,169.1 765.9,120.6 780.4,266.0 795.0,220.1 809.5,153.8 824.1,161.4 838.6,217.6 853.2,181.9 867.7,156.4 882.3,209.9 896.8,130.9 911.4,161.4 925.9,184.4 940.5,118.1 955.0,179.3 969.6,197.1 984.1,138.5 998.7,95.1 1013.2,161.4 1027.8,212.4 1042.3,118.1 1056.9,156.4 1071.4,215.0 1086.0,143.6" fill="none" stroke="#b91c1c" stroke-width="3"/>
<circle cx="82.0" cy="304.2" r="2.8" fill="#b91c1c"/>
<circle cx="96.6" cy="143.6" r="2.8" fill="#b91c1c"/>
<circle cx="111.1" cy="263.4" r="2.8" fill="#b91c1c"/>
<circle cx="125.7" cy="148.7" r="2.8" fill="#b91c1c"/>
<circle cx="140.2" cy="255.8" r="2.8" fill="#b91c1c"/>
<circle cx="154.8" cy="263.4" r="2.8" fill="#b91c1c"/>
<circle cx="169.3" cy="227.8" r="2.8" fill="#b91c1c"/>
<circle cx="183.9" cy="189.5" r="2.8" fill="#b91c1c"/>
<circle cx="198.4" cy="197.1" r="2.8" fill="#b91c1c"/>
<circle cx="213.0" cy="215.0" r="2.8" fill="#b91c1c"/>
<circle cx="227.5" cy="222.6" r="2.8" fill="#b91c1c"/>
<circle cx="242.1" cy="240.5" r="2.8" fill="#b91c1c"/>
<circle cx="256.6" cy="258.4" r="2.8" fill="#b91c1c"/>
<circle cx="271.2" cy="240.5" r="2.8" fill="#b91c1c"/>
<circle cx="285.7" cy="266.0" r="2.8" fill="#b91c1c"/>
<circle cx="300.3" cy="202.2" r="2.8" fill="#b91c1c"/>
<circle cx="314.8" cy="248.1" r="2.8" fill="#b91c1c"/>
<circle cx="329.4" cy="273.6" r="2.8" fill="#b91c1c"/>
<circle cx="343.9" cy="179.3" r="2.8" fill="#b91c1c"/>
<circle cx="358.5" cy="243.1" r="2.8" fill="#b91c1c"/>
<circle cx="373.0" cy="181.9" r="2.8" fill="#b91c1c"/>
<circle cx="387.6" cy="276.2" r="2.8" fill="#b91c1c"/>
<circle cx="402.1" cy="294.1" r="2.8" fill="#b91c1c"/>
<circle cx="416.7" cy="278.8" r="2.8" fill="#b91c1c"/>
<circle cx="431.2" cy="245.6" r="2.8" fill="#b91c1c"/>
<circle cx="445.8" cy="278.8" r="2.8" fill="#b91c1c"/>
<circle cx="460.3" cy="222.6" r="2.8" fill="#b91c1c"/>
<circle cx="474.9" cy="125.8" r="2.8" fill="#b91c1c"/>
<circle cx="489.4" cy="181.9" r="2.8" fill="#b91c1c"/>
<circle cx="504.0" cy="181.9" r="2.8" fill="#b91c1c"/>
<circle cx="518.5" cy="189.5" r="2.8" fill="#b91c1c"/>
<circle cx="533.1" cy="253.2" r="2.8" fill="#b91c1c"/>
<circle cx="547.6" cy="243.1" r="2.8" fill="#b91c1c"/>
<circle cx="562.2" cy="194.6" r="2.8" fill="#b91c1c"/>
<circle cx="576.7" cy="184.4" r="2.8" fill="#b91c1c"/>
<circle cx="591.3" cy="181.9" r="2.8" fill="#b91c1c"/>
<circle cx="605.8" cy="143.6" r="2.8" fill="#b91c1c"/>
<circle cx="620.4" cy="268.6" r="2.8" fill="#b91c1c"/>
<circle cx="634.9" cy="151.2" r="2.8" fill="#b91c1c"/>
<circle cx="649.5" cy="194.6" r="2.8" fill="#b91c1c"/>
<circle cx="664.0" cy="250.7" r="2.8" fill="#b91c1c"/>
<circle cx="678.6" cy="250.7" r="2.8" fill="#b91c1c"/>
<circle cx="693.1" cy="161.4" r="2.8" fill="#b91c1c"/>
<circle cx="707.7" cy="222.6" r="2.8" fill="#b91c1c"/>
<circle cx="722.2" cy="176.8" r="2.8" fill="#b91c1c"/>
<circle cx="736.8" cy="212.4" r="2.8" fill="#b91c1c"/>
<circle cx="751.3" cy="169.1" r="2.8" fill="#b91c1c"/>
<circle cx="765.9" cy="120.6" r="2.8" fill="#b91c1c"/>
<circle cx="780.4" cy="266.0" r="2.8" fill="#b91c1c"/>
<circle cx="795.0" cy="220.1" r="2.8" fill="#b91c1c"/>
<circle cx="809.5" cy="153.8" r="2.8" fill="#b91c1c"/>
<circle cx="824.1" cy="161.4" r="2.8" fill="#b91c1c"/>
<circle cx="838.6" cy="217.6" r="2.8" fill="#b91c1c"/>
<circle cx="853.2" cy="181.9" r="2.8" fill="#b91c1c"/>
<circle cx="867.7" cy="156.4" r="2.8" fill="#b91c1c"/>
<circle cx="882.3" cy="209.9" r="2.8" fill="#b91c1c"/>
<circle cx="896.8" cy="130.9" r="2.8" fill="#b91c1c"/>
<circle cx="911.4" cy="161.4" r="2.8" fill="#b91c1c"/>
<circle cx="925.9" cy="184.4" r="2.8" fill="#b91c1c"/>
<circle cx="940.5" cy="118.1" r="2.8" fill="#b91c1c"/>
<circle cx="955.0" cy="179.3" r="2.8" fill="#b91c1c"/>
<circle cx="969.6" cy="197.1" r="2.8" fill="#b91c1c"/>
<circle cx="984.1" cy="138.5" r="2.8" fill="#b91c1c"/>
<circle cx="998.7" cy="95.1" r="2.8" fill="#b91c1c"/>
<circle cx="1013.2" cy="161.4" r="2.8" fill="#b91c1c"/>
<circle cx="1027.8" cy="212.4" r="2.8" fill="#b91c1c"/>
<circle cx="1042.3" cy="118.1" r="2.8" fill="#b91c1c"/>
<circle cx="1056.9" cy="156.4" r="2.8" fill="#b91c1c"/>
<circle cx="1071.4" cy="215.0" r="2.8" fill="#b91c1c"/>
<circle cx="1086.0" cy="143.6" r="2.8" fill="#b91c1c"/>
<rect x="810" y="80" width="14" height="4" fill="#b91c1c"/>
<text x="832" y="85" class="legend">Annual hottest station-day TXK</text>
<polyline points="82.0,528.7 96.6,482.8 111.1,490.4 125.7,444.5 140.2,515.9 154.8,470.0 169.3,498.1 183.9,490.4 198.4,431.8 213.0,528.7 227.5,482.8 242.1,472.6 256.6,492.9 271.2,454.7 285.7,477.7 300.3,454.7 314.8,495.5 329.4,452.2 343.9,513.4 358.5,452.2 373.0,426.7 387.6,518.4 402.1,510.8 416.7,487.8 431.2,515.9 445.8,487.8 460.3,441.9 474.9,419.0 489.4,508.2 504.0,482.8 518.5,457.2 533.1,500.6 547.6,487.8 562.2,462.3 576.7,457.2 591.3,454.7 605.8,434.3 620.4,477.7 634.9,401.2 649.5,421.6 664.0,482.8 678.6,452.2 693.1,462.3 707.7,447.1 722.2,457.2 736.8,444.5 751.3,457.2 765.9,378.2 780.4,459.8 795.0,431.8 809.5,406.2 824.1,459.8 838.6,454.7 853.2,452.2 867.7,434.3 882.3,459.8 896.8,447.1 911.4,436.8 925.9,457.2 940.5,383.3 955.0,434.3 969.6,436.8 984.1,375.6 998.7,390.9 1013.2,424.1 1027.8,462.3 1042.3,388.4 1056.9,408.8 1071.4,408.8 1086.0,421.6" fill="none" stroke="#2563eb" stroke-width="3"/>
<circle cx="82.0" cy="528.7" r="2.8" fill="#2563eb"/>
<circle cx="96.6" cy="482.8" r="2.8" fill="#2563eb"/>
<circle cx="111.1" cy="490.4" r="2.8" fill="#2563eb"/>
<circle cx="125.7" cy="444.5" r="2.8" fill="#2563eb"/>
<circle cx="140.2" cy="515.9" r="2.8" fill="#2563eb"/>
<circle cx="154.8" cy="470.0" r="2.8" fill="#2563eb"/>
<circle cx="169.3" cy="498.1" r="2.8" fill="#2563eb"/>
<circle cx="183.9" cy="490.4" r="2.8" fill="#2563eb"/>
<circle cx="198.4" cy="431.8" r="2.8" fill="#2563eb"/>
<circle cx="213.0" cy="528.7" r="2.8" fill="#2563eb"/>
<circle cx="227.5" cy="482.8" r="2.8" fill="#2563eb"/>
<circle cx="242.1" cy="472.6" r="2.8" fill="#2563eb"/>
<circle cx="256.6" cy="492.9" r="2.8" fill="#2563eb"/>
<circle cx="271.2" cy="454.7" r="2.8" fill="#2563eb"/>
<circle cx="285.7" cy="477.7" r="2.8" fill="#2563eb"/>
<circle cx="300.3" cy="454.7" r="2.8" fill="#2563eb"/>
<circle cx="314.8" cy="495.5" r="2.8" fill="#2563eb"/>
<circle cx="329.4" cy="452.2" r="2.8" fill="#2563eb"/>
<circle cx="343.9" cy="513.4" r="2.8" fill="#2563eb"/>
<circle cx="358.5" cy="452.2" r="2.8" fill="#2563eb"/>
<circle cx="373.0" cy="426.7" r="2.8" fill="#2563eb"/>
<circle cx="387.6" cy="518.4" r="2.8" fill="#2563eb"/>
<circle cx="402.1" cy="510.8" r="2.8" fill="#2563eb"/>
<circle cx="416.7" cy="487.8" r="2.8" fill="#2563eb"/>
<circle cx="431.2" cy="515.9" r="2.8" fill="#2563eb"/>
<circle cx="445.8" cy="487.8" r="2.8" fill="#2563eb"/>
<circle cx="460.3" cy="441.9" r="2.8" fill="#2563eb"/>
<circle cx="474.9" cy="419.0" r="2.8" fill="#2563eb"/>
<circle cx="489.4" cy="508.2" r="2.8" fill="#2563eb"/>
<circle cx="504.0" cy="482.8" r="2.8" fill="#2563eb"/>
<circle cx="518.5" cy="457.2" r="2.8" fill="#2563eb"/>
<circle cx="533.1" cy="500.6" r="2.8" fill="#2563eb"/>
<circle cx="547.6" cy="487.8" r="2.8" fill="#2563eb"/>
<circle cx="562.2" cy="462.3" r="2.8" fill="#2563eb"/>
<circle cx="576.7" cy="457.2" r="2.8" fill="#2563eb"/>
<circle cx="591.3" cy="454.7" r="2.8" fill="#2563eb"/>
<circle cx="605.8" cy="434.3" r="2.8" fill="#2563eb"/>
<circle cx="620.4" cy="477.7" r="2.8" fill="#2563eb"/>
<circle cx="634.9" cy="401.2" r="2.8" fill="#2563eb"/>
<circle cx="649.5" cy="421.6" r="2.8" fill="#2563eb"/>
<circle cx="664.0" cy="482.8" r="2.8" fill="#2563eb"/>
<circle cx="678.6" cy="452.2" r="2.8" fill="#2563eb"/>
<circle cx="693.1" cy="462.3" r="2.8" fill="#2563eb"/>
<circle cx="707.7" cy="447.1" r="2.8" fill="#2563eb"/>
<circle cx="722.2" cy="457.2" r="2.8" fill="#2563eb"/>
<circle cx="736.8" cy="444.5" r="2.8" fill="#2563eb"/>
<circle cx="751.3" cy="457.2" r="2.8" fill="#2563eb"/>
<circle cx="765.9" cy="378.2" r="2.8" fill="#2563eb"/>
<circle cx="780.4" cy="459.8" r="2.8" fill="#2563eb"/>
<circle cx="795.0" cy="431.8" r="2.8" fill="#2563eb"/>
<circle cx="809.5" cy="406.2" r="2.8" fill="#2563eb"/>
<circle cx="824.1" cy="459.8" r="2.8" fill="#2563eb"/>
<circle cx="838.6" cy="454.7" r="2.8" fill="#2563eb"/>
<circle cx="853.2" cy="452.2" r="2.8" fill="#2563eb"/>
<circle cx="867.7" cy="434.3" r="2.8" fill="#2563eb"/>
<circle cx="882.3" cy="459.8" r="2.8" fill="#2563eb"/>
<circle cx="896.8" cy="447.1" r="2.8" fill="#2563eb"/>
<circle cx="911.4" cy="436.8" r="2.8" fill="#2563eb"/>
<circle cx="925.9" cy="457.2" r="2.8" fill="#2563eb"/>
<circle cx="940.5" cy="383.3" r="2.8" fill="#2563eb"/>
<circle cx="955.0" cy="434.3" r="2.8" fill="#2563eb"/>
<circle cx="969.6" cy="436.8" r="2.8" fill="#2563eb"/>
<circle cx="984.1" cy="375.6" r="2.8" fill="#2563eb"/>
<circle cx="998.7" cy="390.9" r="2.8" fill="#2563eb"/>
<circle cx="1013.2" cy="424.1" r="2.8" fill="#2563eb"/>
<circle cx="1027.8" cy="462.3" r="2.8" fill="#2563eb"/>
<circle cx="1042.3" cy="388.4" r="2.8" fill="#2563eb"/>
<circle cx="1056.9" cy="408.8" r="2.8" fill="#2563eb"/>
<circle cx="1071.4" cy="408.8" r="2.8" fill="#2563eb"/>
<circle cx="1086.0" cy="421.6" r="2.8" fill="#2563eb"/>
<rect x="810" y="102" width="14" height="4" fill="#2563eb"/>
<text x="832" y="107" class="legend">Annual station-day TXK p95</text>
</svg>