<svg xmlns="http://www.w3.org/2000/svg" width="1120" height="650" viewBox="0 0 1120 650">
<style>
text{font-family:Inter,Segoe UI,Arial,sans-serif;fill:#1f2933}
.title{font-size:26px;font-weight:700}.subtitle{font-size:14px;fill:#52606d}
.axis{stroke:#52606d;stroke-width:1}.grid{stroke:#d9e2ec;stroke-width:1}
.tick{font-size:12px;fill:#52606d}.legend{font-size:13px;fill:#334e68}
</style>
<rect width="1120" height="650" fill="#fbfcfe"/>
<text x="82" y="34" class="title">Germany station heat extremes</text>
<text x="82" y="55" class="subtitle">DWD station-day TXK: annual maximum and 95th percentile</text>
<line x1="82" y1="572" x2="1086" y2="572" class="axis"/>
<line x1="82" y1="62" x2="82" y2="572" class="axis"/>
<line x1="82" y1="572.0" x2="1086" y2="572.0" class="grid"/>
<text x="72" y="576.0" text-anchor="end" class="tick">22.5</text>
<line x1="82" y1="508.2" x2="1086" y2="508.2" class="grid"/>
<text x="72" y="512.2" text-anchor="end" class="tick">25</text>
<line x1="82" y1="444.5" x2="1086" y2="444.5" class="grid"/>
<text x="72" y="448.5" text-anchor="end" class="tick">27.5</text>
<line x1="82" y1="380.8" x2="1086" y2="380.8" class="grid"/>
<text x="72" y="384.8" text-anchor="end" class="tick">30</text>
<line x1="82" y1="317.0" x2="1086" y2="317.0" class="grid"/>
<text x="72" y="321.0" text-anchor="end" class="tick">32.5</text>
<line x1="82" y1="253.2" x2="1086" y2="253.2" class="grid"/>
<text x="72" y="257.2" text-anchor="end" class="tick">35</text>
<line x1="82" y1="189.5" x2="1086" y2="189.5" class="grid"/>
<text x="72" y="193.5" text-anchor="end" class="tick">37.5</text>
<line x1="82" y1="125.8" x2="1086" y2="125.8" class="grid"/>
<text x="72" y="129.8" text-anchor="end" class="tick">40</text>
<line x1="82" y1="62.0" x2="1086" y2="62.0" class="grid"/>
<text x="72" y="66.0" text-anchor="end" class="tick">42.5</text>
<line x1="82.0" y1="572" x2="82.0" y2="578" class="axis"/>
<text x="82.0" y="596" text-anchor="middle" class="tick">1906</text>
<line x1="115.7" y1="572" x2="115.7" y2="578" class="axis"/>
<text x="115.7" y="596" text-anchor="middle" class="tick">1910</text>
<line x1="200.1" y1="572" x2="200.1" y2="578" class="axis"/>
<text x="200.1" y="596" text-anchor="middle" class="tick">1920</text>
<line x1="284.5" y1="572" x2="284.5" y2="578" class="axis"/>
<text x="284.5" y="596" text-anchor="middle" class="tick">1930</text>
<line x1="368.9" y1="572" x2="368.9" y2="578" class="axis"/>
<text x="368.9" y="596" text-anchor="middle" class="tick">1940</text>
<line x1="453.2" y1="572" x2="453.2" y2="578" class="axis"/>
<text x="453.2" y="596" text-anchor="middle" class="tick">1950</text>
<line x1="537.6" y1="572" x2="537.6" y2="578" class="axis"/>
<text x="537.6" y="596" text-anchor="middle" class="tick">1960</text>
<line x1="622.0" y1="572" x2="622.0" y2="578" class="axis"/>
<text x="622.0" y="596" text-anchor="middle" class="tick">1970</text>
<line x1="706.3" y1="572" x2="706.3" y2="578" class="axis"/>
<text x="706.3" y="596" text-anchor="middle" class="tick">1980</text>
<line x1="790.7" y1="572" x2="790.7" y2="578" class="axis"/>
<text x="790.7" y="596" text-anchor="middle" class="tick">1990</text>
<line x1="875.1" y1="572" x2="875.1" y2="578" class="axis"/>
<text x="875.1" y="596" text-anchor="middle" class="tick">2000</text>
<line x1="959.4" y1="572" x2="959.4" y2="578" class="axis"/>
<text x="959.4" y="596" text-anchor="middle" class="tick">2010</text>
<line x1="1043.8" y1="572" x2="1043.8" y2="578" class="axis"/>
<text x="1043.8" y="596" text-anchor="middle" class="tick">2020</text>
<line x1="1086.0" y1="572" x2="1086.0" y2="578" class="axis"/>
<text x="1086.0" y="596" text-anchor="middle" class="tick">2025</text>
<text transform="translate(22 317.0) rotate(-90)" text-anchor="middle" class="tick">degrees C</text>
<polyline points="82.0,260.9 90.4,288.9 98.9,248.1 107.3,296.6 115.7,309.4 124.2,176.8 132.6,281.3 141.1,329.8 149.5,283.9 157.9,222.6 166.4,355.2 174.8,243.1 183.2,186.9 191.7,260.9 200.1,222.6 208.6,153.8 217.0,202.2 225.4,156.4 233.9,260.9 242.3,225.2 250.7,291.5 259.2,281.3 267.6,153.8 276.1,209.9 284.5,255.8 292.9,263.4 301.4,192.1 309.8,240.5 318.2,263.4 326.7,212.4 335.1,245.6 343.5,220.1 352.0,243.1 360.4,243.1 368.9,319.6 377.3,202.2 385.7,260.9 394.2,153.8 402.6,164.0 411.0,253.2 419.5,199.7 427.9,141.1 436.4,220.1 444.8,151.2 453.2,220.1 461.7,248.1 470.1,135.9 478.5,227.8 487.0,243.1 495.4,268.6 503.8,304.2 512.3,143.6 520.7,263.4 529.2,148.7 537.6,255.8 546.0,263.4 554.5,227.8 562.9,189.5 571.3,197.1 579.8,215.0 588.2,222.6 596.7,240.5 605.1,258.4 613.5,240.5 622.0,266.0 630.4,202.2 638.8,248.1 647.3,273.6 655.7,179.3 664.2,243.1 672.6,181.9 681.0,276.2 689.5,294.1 697.9,278.8 706.3,245.6 714.8,278.8 723.2,222.6 731.6,125.8 740.1,181.9 748.5,181.9 757.0,189.5 765.4,253.2 773.8,243.1 782.3,194.6 790.7,184.4 799.1,181.9 807.6,143.6 816.0,268.6 824.5,151.2 832.9,194.6 841.3,250.7 849.8,250.7 858.2,161.4 866.6,222.6 875.1,176.8 883.5,212.4 891.9,169.1 900.4,120.6 908.8,266.0 917.3,220.1 925.7,153.8 934.1,161.4 942.6,217.6 951.0,181.9 959.4,156.4 967.9,209.9 976.3,130.9 984.8,161.4 993.2,184.4 1001.6,118.1 1010.1,179.3 1018.5,197.1 1026.9,138.5 1035.4,95.1 1043.8,161.4 1052.3,212.4 1060.7,118.1 1069.1,156.4 1077.6,215.0 1086.0,143.6" fill="none" stroke="#b91c1c" stroke-width="3"/>
<circle cx="82.0" cy="260.9" r="2.8" fill="#b91c1c"/>
<circle cx="90.4" cy="288.9" r="2.8" fill="#b91c1c"/>
<circle cx="98.9" cy="248.1" r="2.8" fill="#b91c1c"/>
<circle cx="107.3" cy="296.6" r="2.8" fill="#b91c1c"/>
<circle cx="115.7" cy="309.4" r="2.8" fill="#b91c1c"/>
<circle cx="124.2" cy="176.8" r="2.8" fill="#b91c1c"/>
<circle cx="132.6" cy="281.3" r="2.8" fill="#b91c1c"/>
<circle cx="141.1" cy="329.8" r="2.8" fill="#b91c1c"/>
<circle cx="149.5" cy="283.9" r="2.8" fill="#b91c1c"/>
<circle cx="157.9" cy="222.6" r="2.8" fill="#b91c1c"/>
<circle cx="166.4" cy="355.2" r="2.8" fill="#b91c1c"/>
<circle cx="174.8" cy="243.1" r="2.8" fill="#b91c1c"/>
<circle cx="183.2" cy="186.9" r="2.8" fill="#b91c1c"/>
<circle cx="191.7" cy="260.9" r="2.8" fill="#b91c1c"/>
<circle cx="200.1" cy="222.6" r="2.8" fill="#b91c1c"/>
<circle cx="208.6" cy="153.8" r="2.8" fill="#b91c1c"/>
<circle cx="217.0" cy="202.2" r="2.8" fill="#b91c1c"/>
<circle cx="225.4" cy="156.4" r="2.8" fill="#b91c1c"/>
<circle cx="233.9" cy="260.9" r="2.8" fill="#b91c1c"/>
<circle cx="242.3" cy="225.2" r="2.8" fill="#b91c1c"/>
<circle cx="250.7" cy="291.5" r="2.8" fill="#b91c1c"/>
<circle cx="259.2" cy="281.3" r="2.8" fill="#b91c1c"/>
<circle cx="267.6" cy="153.8" r="2.8" fill="#b91c1c"/>
<circle cx="276.1" cy="209.9" r="2.8" fill="#b91c1c"/>
<circle cx="284.5" cy="255.8" r="2.8" fill="#b91c1c"/>
<circle cx="292.9" cy="263.4" r="2.8" fill="#b91c1c"/>
<circle cx="301.4" cy="192.1" r="2.8" fill="#b91c1c"/>
<circle cx="309.8" cy="240.5" r="2.8" fill="#b91c1c"/>
<circle cx="318.2" cy="263.4" r="2.8" fill="#b91c1c"/>
<circle cx="326.7" cy="212.4" r="2.8" fill="#b91c1c"/>
<circle cx="335.1" cy="245.6" r="2.8" fill="#b91c1c"/>
<circle cx="343.5" cy="220.1" r="2.8" fill="#b91c1c"/>
<circle cx="352.0" cy="243.1" r="2.8" fill="#b91c1c"/>
<circle cx="360.4" cy="243.1" r="2.8" fill="#b91c1c"/>
<circle cx="368.9" cy="319.6" r="2.8" fill="#b91c1c"/>
<circle cx="377.3" cy="202.2" r="2.8" fill="#b91c1c"/>
<circle cx="385.7" cy="260.9" r="2.8" fill="#b91c1c"/>
<circle cx="394.2" cy="153.8" r="2.8" fill="#b91c1c"/>
<circle cx="402.6" cy="164.0" r="2.8" fill="#b91c1c"/>
<circle cx="411.0" cy="253.2" r="2.8" fill="#b91c1c"/>
<circle cx="419.5" cy="199.7" r="2.8" fill="#b91c1c"/>
<circle cx="427.9" cy="141.1" r="2.8" fill="#b91c1c"/>
<circle cx="436.4" cy="220.1" r="2.8" fill="#b91c1c"/>
<circle cx="444.8" cy="151.2" r="2.8" fill="#b91c1c"/>
<circle cx="453.2" cy="220.1" r="2.8" fill="#b91c1c"/>
<circle cx="461.7" cy="248.1" r="2.8" fill="#b91c1c"/>
<circle cx="470.1" cy="135.9" r="2.8" fill="#b91c1c"/>
<circle cx="478.5" cy="227.8" r="2.8" fill="#b91c1c"/>
<circle cx="487.0" cy="243.1" r="2.8" fill="#b91c1c"/>
<circle cx="495.4" cy="268.6" r="2.8" fill="#b91c1c"/>
<circle cx="503.8" cy="304.2" r="2.8" fill="#b91c1c"/>
<circle cx="512.3" cy="143.6" r="2.8" fill="#b91c1c"/>
<circle cx="520.7" cy="263.4" r="2.8" fill="#b91c1c"/>
<circle cx="529.2" cy="148.7" r="2.8" fill="#b91c1c"/>
<circle cx="537.6" cy="255.8" r="2.8" fill="#b91c1c"/>
<circle cx="546.0" cy="263.4" r="2.8" fill="#b91c1c"/>
<circle cx="554.5" cy="227.8" r="2.8" fill="#b91c1c"/>
<circle cx="562.9" cy="189.5" r="2.8" fill="#b91c1c"/>
<circle cx="571.3" cy="197.1" r="2.8" fill="#b91c1c"/>
<circle cx="579.8" cy="215.0" r="2.8" fill="#b91c1c"/>
<circle cx="588.2" cy="222.6" r="2.8" fill="#b91c1c"/>
<circle cx="596.7" cy="240.5" r="2.8" fill="#b91c1c"/>
<circle cx="605.1" cy="258.4" r="2.8" fill="#b91c1c"/>
<circle cx="613.5" cy="240.5" r="2.8" fill="#b91c1c"/>
<circle cx="622.0" cy="266.0" r="2.8" fill="#b91c1c"/>
<circle cx="630.4" cy="202.2" r="2.8" fill="#b91c1c"/>
<circle cx="638.8" cy="248.1" r="2.8" fill="#b91c1c"/>
<circle cx="647.3" cy="273.6" r="2.8" fill="#b91c1c"/>
<circle cx="655.7" cy="179.3" r="2.8" fill="#b91c1c"/>
<circle cx="664.2" cy="243.1" r="2.8" fill="#b91c1c"/>
<circle cx="672.6" cy="181.9" r="2.8" fill="#b91c1c"/>
<circle cx="681.0" cy="276.2" r="2.8" fill="#b91c1c"/>
<circle cx="689.5" cy="294.1" r="2.8" fill="#b91c1c"/>
<circle cx="697.9" cy="278.8" r="2.8" fill="#b91c1c"/>
<circle cx="706.3" cy="245.6" r="2.8" fill="#b91c1c"/>
<circle cx="714.8" cy="278.8" r="2.8" fill="#b91c1c"/>
<circle cx="723.2" cy="222.6" r="2.8" fill="#b91c1c"/>
<circle cx="731.6" cy="125.8" r="2.8" fill="#b91c1c"/>
<circle cx="740.1" cy="181.9" r="2.8" fill="#b91c1c"/>
<circle cx="748.5" cy="181.9" r="2.8" fill="#b91c1c"/>
<circle cx="757.0" cy="189.5" r="2.8" fill="#b91c1c"/>
<circle cx="765.4" cy="253.2" r="2.8" fill="#b91c1c"/>
<circle cx="773.8" cy="243.1" r="2.8" fill="#b91c1c"/>
<circle cx="782.3" cy="194.6" r="2.8" fill="#b91c1c"/>
<circle cx="790.7" cy="184.4" r="2.8" fill="#b91c1c"/>
<circle cx="799.1" cy="181.9" r="2.8" fill="#b91c1c"/>
<circle cx="807.6" cy="143.6" r="2.8" fill="#b91c1c"/>
<circle cx="816.0" cy="268.6" r="2.8" fill="#b91c1c"/>
<circle cx="824.5" cy="151.2" r="2.8" fill="#b91c1c"/>
<circle cx="832.9" cy="194.6" r="2.8" fill="#b91c1c"/>
<circle cx="841.3" cy="250.7" r="2.8" fill="#b91c1c"/>
<circle cx="849.8" cy="250.7" r="2.8" fill="#b91c1c"/>
<circle cx="858.2" cy="161.4" r="2.8" fill="#b91c1c"/>
<circle cx="866.6" cy="222.6" r="2.8" fill="#b91c1c"/>
<circle cx="875.1" cy="176.8" r="2.8" fill="#b91c1c"/>
<circle cx="883.5" cy="212.4" r="2.8" fill="#b91c1c"/>
<circle cx="891.9" cy="169.1" r="2.8" fill="#b91c1c"/>
<circle cx="900.4" cy="120.6" r="2.8" fill="#b91c1c"/>
<circle cx="908.8" cy="266.0" r="2.8" fill="#b91c1c"/>
<circle cx="917.3" cy="220.1" r="2.8" fill="#b91c1c"/>
<circle cx="925.7" cy="153.8" r="2.8" fill="#b91c1c"/>
<circle cx="934.1" cy="161.4" r="2.8" fill="#b91c1c"/>
<circle cx="942.6" cy="217.6" r="2.8" fill="#b91c1c"/>
<circle cx="951.0" cy="181.9" r="2.8" fill="#b91c1c"/>
<circle cx="959.4" cy="156.4" r="2.8" fill="#b91c1c"/>
<circle cx="967.9" cy="209.9" r="2.8" fill="#b91c1c"/>
<circle cx="976.3" cy="130.9" r="2.8" fill="#b91c1c"/>
<circle cx="984.8" cy="161.4" r="2.8" fill="#b91c1c"/>
<circle cx="993.2" cy="184.4" r="2.8" fill="#b91c1c"/>
<circle cx="1001.6" cy="118.1" r="2.8" fill="#b91c1c"/>
<circle cx="1010.1" cy="179.3" r="2.8" fill="#b91c1c"/>
<circle cx="1018.5" cy="197.1" r="2.8" fill="#b91c1c"/>
<circle cx="1026.9" cy="138.5" r="2.8" fill="#b91c1c"/>
<circle cx="1035.4" cy="95.1" r="2.8" fill="#b91c1c"/>
<circle cx="1043.8" cy="161.4" r="2.8" fill="#b91c1c"/>
<circle cx="1052.3" cy="212.4" r="2.8" fill="#b91c1c"/>
<circle cx="1060.7" cy="118.1" r="2.8" fill="#b91c1c"/>
<circle cx="1069.1" cy="156.4" r="2.8" fill="#b91c1c"/>
<circle cx="1077.6" cy="215.0" r="2.8" fill="#b91c1c"/>
<circle cx="1086.0" cy="143.6" r="2.8" fill="#b91c1c"/>
<rect x="810" y="80" width="14" height="4" fill="#b91c1c"/>
<text x="832" y="85" class="legend">Annual hottest station-day TXK</text>
<polyline points="82.0,475.1 90.4,508.2 98.9,478.9 107.3,528.7 115.7,508.2 124.2,393.5 132.6,498.1 141.1,505.7 149.5,464.9 157.9,492.9 166.4,531.2 174.8,457.2 183.2,508.2 191.7,482.8 200.1,498.1 208.6,431.8 217.0,498.1 225.4,477.7 233.9,508.2 242.3,485.3 250.7,503.1 259.2,498.1 267.6,482.8 276.1,449.6 284.5,485.3 292.9,482.8 301.4,444.5 309.8,495.5 318.2,457.2 326.7,452.2 335.1,495.5 343.5,459.8 352.0,462.3 360.4,472.6 368.9,505.7 377.3,487.8 385.7,470.0 394.2,462.3 402.6,452.2 411.0,462.3 419.5,485.3 427.9,368.0 436.4,475.1 444.8,444.5 453.2,454.7 461.7,480.2 470.1,454.7 478.5,457.2 487.0,513.4 495.4,503.1 503.8,528.7 512.3,482.8 520.7,490.4 529.2,444.5 537.6,515.9 546.0,470.0 554.5,498.1 562.9,490.4 571.3,431.8 579.8,528.7 588.2,482.8 596.7,472.6 605.1,492.9 613.5,454.7 622.0,477.7 630.4,454.7 638.8,495.5 647.3,452.2 655.7,513.4 664.2,452.2 672.6,426.7 681.0,518.4 689.5,510.8 697.9,487.8 706.3,515.9 714.8,487.8 723.2,441.9 731.6,419.0 740.1,508.2 748.5,482.8 757.0,457.2 765.4,500.6 773.8,487.8 782.3,462.3 790.7,457.2 799.1,454.7 807.6,434.3 816.0,477.7 824.5,401.2 832.9,421.6 841.3,482.8 849.8,452.2 858.2,462.3 866.6,447.1 875.1,457.2 883.5,444.5 891.9,457.2 900.4,378.2 908.8,459.8 917.3,431.8 925.7,406.2 934.1,459.8 942.6,454.7 951.0,452.2 959.4,434.3 967.9,459.8 976.3,447.1 984.8,436.8 993.2,457.2 1001.6,383.3 1010.1,434.3 1018.5,436.8 1026.9,375.6 1035.4,390.9 1043.8,424.1 1052.3,462.3 1060.7,388.4 1069.1,408.8 1077.6,408.8 1086.0,421.6" fill="none" stroke="#2563eb" stroke-width="3"/>
<circle cx="82.0" cy="475.1" r="2.8" fill="#2563eb"/>
<circle cx="90.4" cy="508.2" r="2.8" fill="#2563eb"/>
<circle cx="98.9" cy="478.9" r="2.8" fill="#2563eb"/>
<circle cx="107.3" cy="528.7" r="2.8" fill="#2563eb"/>
<circle cx="115.7" cy="508.2" r="2.8" fill="#2563eb"/>
<circle cx="124.2" cy="393.5" r="2.8" fill="#2563eb"/>
<circle cx="132.6" cy="498.1" r="2.8" fill="#2563eb"/>
<circle cx="141.1" cy="505.7" r="2.8" fill="#2563eb"/>
<circle cx="149.5" cy="464.9" r="2.8" fill="#2563eb"/>
<circle cx="157.9" cy="492.9" r="2.8" fill="#2563eb"/>
<circle cx="166.4" cy="531.2" r="2.8" fill="#2563eb"/>
<circle cx="174.8" cy="457.2" r="2.8" fill="#2563eb"/>
<circle cx="183.2" cy="508.2" r="2.8" fill="#2563eb"/>
<circle cx="191.7" cy="482.8" r="2.8" fill="#2563eb"/>
<circle cx="200.1" cy="498.1" r="2.8" fill="#2563eb"/>
<circle cx="208.6" cy="431.8" r="2.8" fill="#2563eb"/>
<circle cx="217.0" cy="498.1" r="2.8" fill="#2563eb"/>
<circle cx="225.4" cy="477.7" r="2.8" fill="#2563eb"/>
<circle cx="233.9" cy="508.2" r="2.8" fill="#2563eb"/>
<circle cx="242.3" cy="485.3" r="2.8" fill="#2563eb"/>
<circle cx="250.7" cy="503.1" r="2.8" fill="#2563eb"/>
<circle cx="259.2" cy="498.1" r="2.8" fill="#2563eb"/>
<circle cx="267.6" cy="482.8" r="2.8" fill="#2563eb"/>
<circle cx="276.1" cy="449.6" r="2.8" fill="#2563eb"/>
<circle cx="284.5" cy="485.3" r="2.8" fill="#2563eb"/>
<circle cx="292.9" cy="482.8" r="2.8" fill="#2563eb"/>
<circle cx="301.4" cy="444.5" r="2.8" fill="#2563eb"/>
<circle cx="309.8" cy="495.5" r="2.8" fill="#2563eb"/>
<circle cx="318.2" cy="457.2" r="2.8" fill="#2563eb"/>
<circle cx="326.7" cy="452.2" r="2.8" fill="#2563eb"/>
<circle cx="335.1" cy="495.5" r="2.8" fill="#2563eb"/>
<circle cx="343.5" cy="459.8" r="2.8" fill="#2563eb"/>
<circle cx="352.0" cy="462.3" r="2.8" fill="#2563eb"/>
<circle cx="360.4" cy="472.6" r="2.8" fill="#2563eb"/>
<circle cx="368.9" cy="505.7" r="2.8" fill="#2563eb"/>
<circle cx="377.3" cy="487.8" r="2.8" fill="#2563eb"/>
<circle cx="385.7" cy="470.0" r="2.8" fill="#2563eb"/>
<circle cx="394.2" cy="462.3" r="2.8" fill="#2563eb"/>
<circle cx="402.6" cy="452.2" r="2.8" fill="#2563eb"/>
<circle cx="411.0" cy="462.3" r="2.8" fill="#2563eb"/>
<circle cx="419.5" cy="485.3" r="2.8" fill="#2563eb"/>
<circle cx="427.9" cy="368.0" r="2.8" fill="#2563eb"/>
<circle cx="436.4" cy="475.1" r="2.8" fill="#2563eb"/>
<circle cx="444.8" cy="444.5" r="2.8" fill="#2563eb"/>
<circle cx="453.2" cy="454.7" r="2.8" fill="#2563eb"/>
<circle cx="461.7" cy="480.2" r="2.8" fill="#2563eb"/>
<circle cx="470.1" cy="454.7" r="2.8" fill="#2563eb"/>
<circle cx="478.5" cy="457.2" r="2.8" fill="#2563eb"/>
<circle cx="487.0" cy="513.4" r="2.8" fill="#2563eb"/>
<circle cx="495.4" cy="503.1" r="2.8" fill="#2563eb"/>
<circle cx="503.8" cy="528.7" r="2.8" fill="#2563eb"/>
<circle cx="512.3" cy="482.8" r="2.8" fill="#2563eb"/>
<circle cx="520.7" cy="490.4" r="2.8" fill="#2563eb"/>
<circle cx="529.2" cy="444.5" r="2.8" fill="#2563eb"/>
<circle cx="537.6" cy="515.9" r="2.8" fill="#2563eb"/>
<circle cx="546.0" cy="470.0" r="2.8" fill="#2563eb"/>
<circle cx="554.5" cy="498.1" r="2.8" fill="#2563eb"/>
<circle cx="562.9" cy="490.4" r="2.8" fill="#2563eb"/>
<circle cx="571.3" cy="431.8" r="2.8" fill="#2563eb"/>
<circle cx="579.8" cy="528.7" r="2.8" fill="#2563eb"/>
<circle cx="588.2" cy="482.8" r="2.8" fill="#2563eb"/>
<circle cx="596.7" cy="472.6" r="2.8" fill="#2563eb"/>
<circle cx="605.1" cy="492.9" r="2.8" fill="#2563eb"/>
<circle cx="613.5" cy="454.7" r="2.8" fill="#2563eb"/>
<circle cx="622.0" cy="477.7" r="2.8" fill="#2563eb"/>
<circle cx="630.4" cy="454.7" r="2.8" fill="#2563eb"/>
<circle cx="638.8" cy="495.5" r="2.8" fill="#2563eb"/>
<circle cx="647.3" cy="452.2" r="2.8" fill="#2563eb"/>
<circle cx="655.7" cy="513.4" r="2.8" fill="#2563eb"/>
<circle cx="664.2" cy="452.2" r="2.8" fill="#2563eb"/>
<circle cx="672.6" cy="426.7" r="2.8" fill="#2563eb"/>
<circle cx="681.0" cy="518.4" r="2.8" fill="#2563eb"/>
<circle cx="689.5" cy="510.8" r="2.8" fill="#2563eb"/>
<circle cx="697.9" cy="487.8" r="2.8" fill="#2563eb"/>
<circle cx="706.3" cy="515.9" r="2.8" fill="#2563eb"/>
<circle cx="714.8" cy="487.8" r="2.8" fill="#2563eb"/>
<circle cx="723.2" cy="441.9" r="2.8" fill="#2563eb"/>
<circle cx="731.6" cy="419.0" r="2.8" fill="#2563eb"/>
<circle cx="740.1" cy="508.2" r="2.8" fill="#2563eb"/>
<circle cx="748.5" cy="482.8" r="2.8" fill="#2563eb"/>
<circle cx="757.0" cy="457.2" r="2.8" fill="#2563eb"/>
<circle cx="765.4" cy="500.6" r="2.8" fill="#2563eb"/>
<circle cx="773.8" cy="487.8" r="2.8" fill="#2563eb"/>
<circle cx="782.3" cy="462.3" r="2.8" fill="#2563eb"/>
<circle cx="790.7" cy="457.2" r="2.8" fill="#2563eb"/>
<circle cx="799.1" cy="454.7" r="2.8" fill="#2563eb"/>
<circle cx="807.6" cy="434.3" r="2.8" fill="#2563eb"/>
<circle cx="816.0" cy="477.7" r="2.8" fill="#2563eb"/>
<circle cx="824.5" cy="401.2" r="2.8" fill="#2563eb"/>
<circle cx="832.9" cy="421.6" r="2.8" fill="#2563eb"/>
<circle cx="841.3" cy="482.8" r="2.8" fill="#2563eb"/>
<circle cx="849.8" cy="452.2" r="2.8" fill="#2563eb"/>
<circle cx="858.2" cy="462.3" r="2.8" fill="#2563eb"/>
<circle cx="866.6" cy="447.1" r="2.8" fill="#2563eb"/>
<circle cx="875.1" cy="457.2" r="2.8" fill="#2563eb"/>
<circle cx="883.5" cy="444.5" r="2.8" fill="#2563eb"/>
<circle cx="891.9" cy="457.2" r="2.8" fill="#2563eb"/>
<circle cx="900.4" cy="378.2" r="2.8" fill="#2563eb"/>
<circle cx="908.8" cy="459.8" r="2.8" fill="#2563eb"/>
<circle cx="917.3" cy="431.8" r="2.8" fill="#2563eb"/>
<circle cx="925.7" cy="406.2" r="2.8" fill="#2563eb"/>
<circle cx="934.1" cy="459.8" r="2.8" fill="#2563eb"/>
<circle cx="942.6" cy="454.7" r="2.8" fill="#2563eb"/>
<circle cx="951.0" cy="452.2" r="2.8" fill="#2563eb"/>
<circle cx="959.4" cy="434.3" r="2.8" fill="#2563eb"/>
<circle cx="967.9" cy="459.8" r="2.8" fill="#2563eb"/>
<circle cx="976.3" cy="447.1" r="2.8" fill="#2563eb"/>
<circle cx="984.8" cy="436.8" r="2.8" fill="#2563eb"/>
<circle cx="993.2" cy="457.2" r="2.8" fill="#2563eb"/>
<circle cx="1001.6" cy="383.3" r="2.8" fill="#2563eb"/>
<circle cx="1010.1" cy="434.3" r="2.8" fill="#2563eb"/>
<circle cx="1018.5" cy="436.8" r="2.8" fill="#2563eb"/>
<circle cx="1026.9" cy="375.6" r="2.8" fill="#2563eb"/>
<circle cx="1035.4" cy="390.9" r="2.8" fill="#2563eb"/>
<circle cx="1043.8" cy="424.1" r="2.8" fill="#2563eb"/>
<circle cx="1052.3" cy="462.3" r="2.8" fill="#2563eb"/>
<circle cx="1060.7" cy="388.4" r="2.8" fill="#2563eb"/>
<circle cx="1069.1" cy="408.8" r="2.8" fill="#2563eb"/>
<circle cx="1077.6" cy="408.8" r="2.8" fill="#2563eb"/>
<circle cx="1086.0" cy="421.6" r="2.8" fill="#2563eb"/>
<rect x="810" y="102" width="14" height="4" fill="#2563eb"/>
<text x="832" y="107" class="legend">Annual station-day TXK p95</text>
</svg>