<svg xmlns="http://www.w3.org/2000/svg" width="1120" height="650" viewBox="0 0 1120 650">
<style>
text{font-family:Inter,Segoe UI,Arial,sans-serif;fill:#1f2933}
.title{font-size:26px;font-weight:700}.subtitle{font-size:14px;fill:#52606d}
.axis{stroke:#52606d;stroke-width:1}.grid{stroke:#d9e2ec;stroke-width:1}
.tick{font-size:12px;fill:#52606d}.legend{font-size:13px;fill:#334e68}
</style>
<rect width="1120" height="650" fill="#fbfcfe"/>
<text x="82" y="34" class="title">Germany annual hot-day thresholds</text>
<text x="82" y="55" class="subtitle">Calendar days per year where at least one DWD station exceeded each TXK threshold</text>
<line x1="82" y1="572" x2="1086" y2="572" class="axis"/>
<line x1="82" y1="62" x2="82" y2="572" class="axis"/>
<line x1="82" y1="572.0" x2="1086" y2="572.0" class="grid"/>
<text x="72" y="576.0" text-anchor="end" class="tick">0</text>
<line x1="82" y1="470.0" x2="1086" y2="470.0" class="grid"/>
<text x="72" y="474.0" text-anchor="end" class="tick">5</text>
<line x1="82" y1="368.0" x2="1086" y2="368.0" class="grid"/>
<text x="72" y="372.0" text-anchor="end" class="tick">10</text>
<line x1="82" y1="266.0" x2="1086" y2="266.0" class="grid"/>
<text x="72" y="270.0" text-anchor="end" class="tick">15</text>
<line x1="82" y1="164.0" x2="1086" y2="164.0" class="grid"/>
<text x="72" y="168.0" text-anchor="end" class="tick">20</text>
<line x1="82" y1="62.0" x2="1086" y2="62.0" class="grid"/>
<text x="72" y="66.0" text-anchor="end" class="tick">25</text>
<line x1="82.0" y1="572" x2="82.0" y2="578" class="axis"/>
<text x="82.0" y="596" text-anchor="middle" class="tick">1956</text>
<line x1="140.2" y1="572" x2="140.2" y2="578" class="axis"/>
<text x="140.2" y="596" text-anchor="middle" class="tick">1960</text>
<line x1="285.7" y1="572" x2="285.7" y2="578" class="axis"/>
<text x="285.7" y="596" text-anchor="middle" class="tick">1970</text>
<line x1="431.2" y1="572" x2="431.2" y2="578" class="axis"/>
<text x="431.2" y="596" text-anchor="middle" class="tick">1980</text>
<line x1="576.7" y1="572" x2="576.7" y2="578" class="axis"/>
<text x="576.7" y="596" text-anchor="middle" class="tick">1990</text>
<line x1="722.2" y1="572" x2="722.2" y2="578" class="axis"/>
<text x="722.2" y="596" text-anchor="middle" class="tick">2000</text>
<line x1="867.7" y1="572" x2="867.7" y2="578" class="axis"/>
<text x="867.7" y="596" text-anchor="middle" class="tick">2010</text>
<line x1="1013.2" y1="572" x2="1013.2" y2="578" class="axis"/>
<text x="1013.2" y="596" text-anchor="middle" class="tick">2020</text>
<line x1="1086.0" y1="572" x2="1086.0" y2="578" class="axis"/>
<text x="1086.0" y="596" text-anchor="middle" class="tick">2025</text>
<text transform="translate(22 317.0) rotate(-90)" text-anchor="middle" class="tick">days</text>
<polyline points="82.0,572.0 96.6,429.2 111.1,572.0 125.7,490.4 140.2,572.0 154.8,572.0 169.3,531.2 183.9,470.0 198.4,368.0 213.0,551.6 227.5,551.6 242.1,551.6 256.6,572.0 271.2,510.8 285.7,572.0 300.3,470.0 314.8,551.6 329.4,572.0 343.9,510.8 358.5,531.2 373.0,327.2 387.6,572.0 402.1,572.0 416.7,572.0 431.2,551.6 445.8,572.0 460.3,531.2 474.9,327.2 489.4,490.4 504.0,531.2 518.5,510.8 533.1,572.0 547.6,551.6 562.2,510.8 576.7,429.2 591.3,470.0 605.8,368.0 620.4,572.0 634.9,286.4 649.5,449.6 664.0,551.6 678.6,551.6 693.1,408.8 707.7,510.8 722.2,490.4 736.8,429.2 751.3,490.4 765.9,102.8 780.4,572.0 795.0,470.0 809.5,347.6 824.1,531.2 838.6,531.2 853.2,531.2 867.7,388.4 882.3,490.4 896.8,449.6 911.4,347.6 925.9,470.0 940.5,102.8 955.0,408.8 969.6,470.0 984.1,245.6 998.7,266.0 1013.2,347.6 1027.8,490.4 1042.3,306.8 1056.9,327.2 1071.4,449.6 1086.0,347.6" fill="none" stroke="#d97706" stroke-width="2.6"/>
<rect x="890" y="80" width="14" height="4" fill="#d97706"/>
<text x="912" y="85" class="legend">&gt; 35 C</text>
<polyline points="82.0,572.0 96.6,572.0 111.1,572.0 125.7,572.0 140.2,572.0 154.8,572.0 169.3,572.0 183.9,572.0 198.4,572.0 213.0,572.0 227.5,572.0 242.1,572.0 256.6,572.0 271.2,572.0 285.7,572.0 300.3,572.0 314.8,572.0 329.4,572.0 343.9,572.0 358.5,572.0 373.0,572.0 387.6,572.0 402.1,572.0 416.7,572.0 431.2,572.0 445.8,572.0 460.3,572.0 474.9,572.0 489.4,572.0 504.0,572.0 518.5,572.0 533.1,572.0 547.6,572.0 562.2,572.0 576.7,572.0 591.3,572.0 605.8,572.0 620.4,572.0 634.9,572.0 649.5,572.0 664.0,572.0 678.6,572.0 693.1,572.0 707.7,572.0 722.2,572.0 736.8,572.0 751.3,572.0 765.9,510.8 780.4,572.0 795.0,572.0 809.5,572.0 824.1,572.0 838.6,572.0 853.2,572.0 867.7,572.0 882.3,572.0 896.8,572.0 911.4,572.0 925.9,572.0 940.5,531.2 955.0,572.0 969.6,572.0 984.1,572.0 998.7,531.2 1013.2,572.0 1027.8,572.0 1042.3,551.6 1056.9,572.0 1071.4,572.0 1086.0,572.0" fill="none" stroke="#dc2626" stroke-width="2.6"/>
<rect x="890" y="102" width="14" height="4" fill="#dc2626"/>
<text x="912" y="107" class="legend">&gt; 40 C</text>
<polyline points="82.0,572.0 96.6,572.0 111.1,572.0 125.7,572.0 140.2,572.0 154.8,572.0 169.3,572.0 183.9,572.0 198.4,572.0 213.0,572.0 227.5,572.0 242.1,572.0 256.6,572.0 271.2,572.0 285.7,572.0 300.3,572.0 314.8,572.0 329.4,572.0 343.9,572.0 358.5,572.0 373.0,572.0 387.6,572.0 402.1,572.0 416.7,572.0 431.2,572.0 445.8,572.0 460.3,572.0 474.9,572.0 489.4,572.0 504.0,572.0 518.5,572.0 533.1,572.0 547.6,572.0 562.2,572.0 576.7,572.0 591.3,572.0 605.8,572.0 620.4,572.0 634.9,572.0 649.5,572.0 664.0,572.0 678.6,572.0 693.1,572.0 707.7,572.0 722.2,572.0 736.8,572.0 751.3,572.0 765.9,572.0 780.4,572.0 795.0,572.0 809.5,572.0 824.1,572.0 838.6,572.0 853.2,572.0 867.7,572.0 882.3,572.0 896.8,572.0 911.4,572.0 925.9,572.0 940.5,572.0 955.0,572.0 969.6,572.0 984.1,572.0 998.7,551.6 1013.2,572.0 1027.8,572.0 1042.3,572.0 1056.9,572.0 1071.4,572.0 1086.0,572.0" fill="none" stroke="#7f1d1d" stroke-width="2.6"/>
<rect x="890" y="124" width="14" height="4" fill="#7f1d1d"/>
<text x="912" y="129" class="legend">&gt; 41 C</text>
<polyline points="82.0,572.0 96.6,572.0 111.1,572.0 125.7,572.0 140.2,572.0 154.8,572.0 169.3,572.0 183.9,572.0 198.4,572.0 213.0,572.0 227.5,572.0 242.1,572.0 256.6,572.0 271.2,572.0 285.7,572.0 300.3,572.0 314.8,572.0 329.4,572.0 343.9,572.0 358.5,572.0 373.0,572.0 387.6,572.0 402.1,572.0 416.7,572.0 431.2,572.0 445.8,572.0 460.3,572.0 474.9,572.0 489.4,572.0 504.0,572.0 518.5,572.0 533.1,572.0 547.6,572.0 562.2,572.0 576.7,572.0 591.3,572.0 605.8,572.0 620.4,572.0 634.9,572.0 649.5,572.0 664.0,572.0 678.6,572.0 693.1,572.0 707.7,572.0 722.2,572.0 736.8,572.0 751.3,572.0 765.9,572.0 780.4,572.0 795.0,572.0 809.5,572.0 824.1,572.0 838.6,572.0 853.2,572.0 867.7,572.0 882.3,572.0 896.8,572.0 911.4,572.0 925.9,572.0 940.5,572.0 955.0,572.0 969.6,572.0 984.1,572.0 998.7,572.0 1013.2,572.0 1027.8,572.0 1042.3,572.0 1056.9,572.0 1071.4,572.0 1086.0,572.0" fill="none" stroke="#374151" stroke-width="2.6"/>
<rect x="890" y="146" width="14" height="4" fill="#374151"/>
<text x="912" y="151" class="legend">&gt; 42 C</text>
</svg>