<svg xmlns="http://www.w3.org/2000/svg" width="1120" height="650" viewBox="0 0 1120 650">
<style>
text{font-family:Inter,Segoe UI,Arial,sans-serif;fill:#1f2933}
.title{font-size:26px;font-weight:700}.subtitle{font-size:14px;fill:#52606d}
.axis{stroke:#52606d;stroke-width:1}.grid{stroke:#d9e2ec;stroke-width:1}
.tick{font-size:12px;fill:#52606d}.legend{font-size:13px;fill:#334e68}
</style>
<rect width="1120" height="650" fill="#fbfcfe"/>
<text x="82" y="34" class="title">Germany annual hot-day thresholds</text>
<text x="82" y="55" class="subtitle">Calendar days per year where at least one DWD station exceeded each TXK threshold</text>
<line x1="82" y1="572" x2="1086" y2="572" class="axis"/>
<line x1="82" y1="62" x2="82" y2="572" class="axis"/>
<line x1="82" y1="572.0" x2="1086" y2="572.0" class="grid"/>
<text x="72" y="576.0" text-anchor="end" class="tick">0</text>
<line x1="82" y1="499.1" x2="1086" y2="499.1" class="grid"/>
<text x="72" y="503.1" text-anchor="end" class="tick">5</text>
<line x1="82" y1="426.3" x2="1086" y2="426.3" class="grid"/>
<text x="72" y="430.3" text-anchor="end" class="tick">10</text>
<line x1="82" y1="353.4" x2="1086" y2="353.4" class="grid"/>
<text x="72" y="357.4" text-anchor="end" class="tick">15</text>
<line x1="82" y1="280.6" x2="1086" y2="280.6" class="grid"/>
<text x="72" y="284.6" text-anchor="end" class="tick">20</text>
<line x1="82" y1="207.7" x2="1086" y2="207.7" class="grid"/>
<text x="72" y="211.7" text-anchor="end" class="tick">25</text>
<line x1="82" y1="134.9" x2="1086" y2="134.9" class="grid"/>
<text x="72" y="138.9" text-anchor="end" class="tick">30</text>
<line x1="82" y1="62.0" x2="1086" y2="62.0" class="grid"/>
<text x="72" y="66.0" text-anchor="end" class="tick">35</text>
<line x1="82.0" y1="572" x2="82.0" y2="578" class="axis"/>
<text x="82.0" y="596" text-anchor="middle" class="tick">1906</text>
<line x1="115.7" y1="572" x2="115.7" y2="578" class="axis"/>
<text x="115.7" y="596" text-anchor="middle" class="tick">1910</text>
<line x1="200.1" y1="572" x2="200.1" y2="578" class="axis"/>
<text x="200.1" y="596" text-anchor="middle" class="tick">1920</text>
<line x1="284.5" y1="572" x2="284.5" y2="578" class="axis"/>
<text x="284.5" y="596" text-anchor="middle" class="tick">1930</text>
<line x1="368.9" y1="572" x2="368.9" y2="578" class="axis"/>
<text x="368.9" y="596" text-anchor="middle" class="tick">1940</text>
<line x1="453.2" y1="572" x2="453.2" y2="578" class="axis"/>
<text x="453.2" y="596" text-anchor="middle" class="tick">1950</text>
<line x1="537.6" y1="572" x2="537.6" y2="578" class="axis"/>
<text x="537.6" y="596" text-anchor="middle" class="tick">1960</text>
<line x1="622.0" y1="572" x2="622.0" y2="578" class="axis"/>
<text x="622.0" y="596" text-anchor="middle" class="tick">1970</text>
<line x1="706.3" y1="572" x2="706.3" y2="578" class="axis"/>
<text x="706.3" y="596" text-anchor="middle" class="tick">1980</text>
<line x1="790.7" y1="572" x2="790.7" y2="578" class="axis"/>
<text x="790.7" y="596" text-anchor="middle" class="tick">1990</text>
<line x1="875.1" y1="572" x2="875.1" y2="578" class="axis"/>
<text x="875.1" y="596" text-anchor="middle" class="tick">2000</text>
<line x1="959.4" y1="572" x2="959.4" y2="578" class="axis"/>
<text x="959.4" y="596" text-anchor="middle" class="tick">2010</text>
<line x1="1043.8" y1="572" x2="1043.8" y2="578" class="axis"/>
<text x="1043.8" y="596" text-anchor="middle" class="tick">2020</text>
<line x1="1086.0" y1="572" x2="1086.0" y2="578" class="axis"/>
<text x="1086.0" y="596" text-anchor="middle" class="tick">2025</text>
<text transform="translate(22 317.0) rotate(-90)" text-anchor="middle" class="tick">days</text>
<polyline points="82.0,572.0 90.4,572.0 98.9,557.4 107.3,572.0 115.7,572.0 124.2,353.4 132.6,572.0 141.1,572.0 149.5,572.0 157.9,542.9 166.4,572.0 174.8,542.9 183.2,557.4 191.7,572.0 200.1,557.4 208.6,440.9 217.0,528.3 225.4,528.3 233.9,572.0 242.3,528.3 250.7,572.0 259.2,572.0 267.6,513.7 276.1,499.1 284.5,572.0 292.9,572.0 301.4,513.7 309.8,542.9 318.2,572.0 326.7,542.9 335.1,557.4 343.5,528.3 352.0,542.9 360.4,557.4 368.9,572.0 377.3,528.3 385.7,572.0 394.2,440.9 402.6,484.6 411.0,572.0 419.5,528.3 427.9,105.7 436.4,513.7 444.8,499.1 453.2,513.7 461.7,557.4 470.1,411.7 478.5,528.3 487.0,557.4 495.4,572.0 503.8,572.0 512.3,470.0 520.7,572.0 529.2,513.7 537.6,572.0 546.0,572.0 554.5,542.9 562.9,499.1 571.3,426.3 579.8,557.4 588.2,557.4 596.7,557.4 605.1,572.0 613.5,528.3 622.0,572.0 630.4,499.1 638.8,557.4 647.3,572.0 655.7,528.3 664.2,542.9 672.6,397.1 681.0,572.0 689.5,572.0 697.9,572.0 706.3,557.4 714.8,572.0 723.2,542.9 731.6,397.1 740.1,513.7 748.5,542.9 757.0,528.3 765.4,572.0 773.8,557.4 782.3,528.3 790.7,470.0 799.1,499.1 807.6,426.3 816.0,572.0 824.5,368.0 832.9,484.6 841.3,557.4 849.8,557.4 858.2,455.4 866.6,528.3 875.1,513.7 883.5,470.0 891.9,513.7 900.4,236.9 908.8,572.0 917.3,499.1 925.7,411.7 934.1,542.9 942.6,542.9 951.0,542.9 959.4,440.9 967.9,513.7 976.3,484.6 984.8,411.7 993.2,499.1 1001.6,236.9 1010.1,455.4 1018.5,499.1 1026.9,338.9 1035.4,353.4 1043.8,411.7 1052.3,513.7 1060.7,382.6 1069.1,397.1 1077.6,484.6 1086.0,411.7" fill="none" stroke="#d97706" stroke-width="2.6"/>
<rect x="890" y="80" width="14" height="4" fill="#d97706"/>
<text x="912" y="85" class="legend">&gt; 35 C</text>
<polyline points="82.0,572.0 90.4,572.0 98.9,572.0 107.3,572.0 115.7,572.0 124.2,572.0 132.6,572.0 141.1,572.0 149.5,572.0 157.9,572.0 166.4,572.0 174.8,572.0 183.2,572.0 191.7,572.0 200.1,572.0 208.6,572.0 217.0,572.0 225.4,572.0 233.9,572.0 242.3,572.0 250.7,572.0 259.2,572.0 267.6,572.0 276.1,572.0 284.5,572.0 292.9,572.0 301.4,572.0 309.8,572.0 318.2,572.0 326.7,572.0 335.1,572.0 343.5,572.0 352.0,572.0 360.4,572.0 368.9,572.0 377.3,572.0 385.7,572.0 394.2,572.0 402.6,572.0 411.0,572.0 419.5,572.0 427.9,572.0 436.4,572.0 444.8,572.0 453.2,572.0 461.7,572.0 470.1,572.0 478.5,572.0 487.0,572.0 495.4,572.0 503.8,572.0 512.3,572.0 520.7,572.0 529.2,572.0 537.6,572.0 546.0,572.0 554.5,572.0 562.9,572.0 571.3,572.0 579.8,572.0 588.2,572.0 596.7,572.0 605.1,572.0 613.5,572.0 622.0,572.0 630.4,572.0 638.8,572.0 647.3,572.0 655.7,572.0 664.2,572.0 672.6,572.0 681.0,572.0 689.5,572.0 697.9,572.0 706.3,572.0 714.8,572.0 723.2,572.0 731.6,572.0 740.1,572.0 748.5,572.0 757.0,572.0 765.4,572.0 773.8,572.0 782.3,572.0 790.7,572.0 799.1,572.0 807.6,572.0 816.0,572.0 824.5,572.0 832.9,572.0 841.3,572.0 849.8,572.0 858.2,572.0 866.6,572.0 875.1,572.0 883.5,572.0 891.9,572.0 900.4,528.3 908.8,572.0 917.3,572.0 925.7,572.0 934.1,572.0 942.6,572.0 951.0,572.0 959.4,572.0 967.9,572.0 976.3,572.0 984.8,572.0 993.2,572.0 1001.6,542.9 1010.1,572.0 1018.5,572.0 1026.9,572.0 1035.4,542.9 1043.8,572.0 1052.3,572.0 1060.7,557.4 1069.1,572.0 1077.6,572.0 1086.0,572.0" fill="none" stroke="#dc2626" stroke-width="2.6"/>
<rect x="890" y="102" width="14" height="4" fill="#dc2626"/>
<text x="912" y="107" class="legend">&gt; 40 C</text>
<polyline points="82.0,572.0 90.4,572.0 98.9,572.0 107.3,572.0 115.7,572.0 124.2,572.0 132.6,572.0 141.1,572.0 149.5,572.0 157.9,572.0 166.4,572.0 174.8,572.0 183.2,572.0 191.7,572.0 200.1,572.0 208.6,572.0 217.0,572.0 225.4,572.0 233.9,572.0 242.3,572.0 250.7,572.0 259.2,572.0 267.6,572.0 276.1,572.0 284.5,572.0 292.9,572.0 301.4,572.0 309.8,572.0 318.2,572.0 326.7,572.0 335.1,572.0 343.5,572.0 352.0,572.0 360.4,572.0 368.9,572.0 377.3,572.0 385.7,572.0 394.2,572.0 402.6,572.0 411.0,572.0 419.5,572.0 427.9,572.0 436.4,572.0 444.8,572.0 453.2,572.0 461.7,572.0 470.1,572.0 478.5,572.0 487.0,572.0 495.4,572.0 503.8,572.0 512.3,572.0 520.7,572.0 529.2,572.0 537.6,572.0 546.0,572.0 554.5,572.0 562.9,572.0 571.3,572.0 579.8,572.0 588.2,572.0 596.7,572.0 605.1,572.0 613.5,572.0 622.0,572.0 630.4,572.0 638.8,572.0 647.3,572.0 655.7,572.0 664.2,572.0 672.6,572.0 681.0,572.0 689.5,572.0 697.9,572.0 706.3,572.0 714.8,572.0 723.2,572.0 731.6,572.0 740.1,572.0 748.5,572.0 757.0,572.0 765.4,572.0 773.8,572.0 782.3,572.0 790.7,572.0 799.1,572.0 807.6,572.0 816.0,572.0 824.5,572.0 832.9,572.0 841.3,572.0 849.8,572.0 858.2,572.0 866.6,572.0 875.1,572.0 883.5,572.0 891.9,572.0 900.4,572.0 908.8,572.0 917.3,572.0 925.7,572.0 934.1,572.0 942.6,572.0 951.0,572.0 959.4,572.0 967.9,572.0 976.3,572.0 984.8,572.0 993.2,572.0 1001.6,572.0 1010.1,572.0 1018.5,572.0 1026.9,572.0 1035.4,557.4 1043.8,572.0 1052.3,572.0 1060.7,572.0 1069.1,572.0 1077.6,572.0 1086.0,572.0" fill="none" stroke="#7f1d1d" stroke-width="2.6"/>
<rect x="890" y="124" width="14" height="4" fill="#7f1d1d"/>
<text x="912" y="129" class="legend">&gt; 41 C</text>
<polyline points="82.0,572.0 90.4,572.0 98.9,572.0 107.3,572.0 115.7,572.0 124.2,572.0 132.6,572.0 141.1,572.0 149.5,572.0 157.9,572.0 166.4,572.0 174.8,572.0 183.2,572.0 191.7,572.0 200.1,572.0 208.6,572.0 217.0,572.0 225.4,572.0 233.9,572.0 242.3,572.0 250.7,572.0 259.2,572.0 267.6,572.0 276.1,572.0 284.5,572.0 292.9,572.0 301.4,572.0 309.8,572.0 318.2,572.0 326.7,572.0 335.1,572.0 343.5,572.0 352.0,572.0 360.4,572.0 368.9,572.0 377.3,572.0 385.7,572.0 394.2,572.0 402.6,572.0 411.0,572.0 419.5,572.0 427.9,572.0 436.4,572.0 444.8,572.0 453.2,572.0 461.7,572.0 470.1,572.0 478.5,572.0 487.0,572.0 495.4,572.0 503.8,572.0 512.3,572.0 520.7,572.0 529.2,572.0 537.6,572.0 546.0,572.0 554.5,572.0 562.9,572.0 571.3,572.0 579.8,572.0 588.2,572.0 596.7,572.0 605.1,572.0 613.5,572.0 622.0,572.0 630.4,572.0 638.8,572.0 647.3,572.0 655.7,572.0 664.2,572.0 672.6,572.0 681.0,572.0 689.5,572.0 697.9,572.0 706.3,572.0 714.8,572.0 723.2,572.0 731.6,572.0 740.1,572.0 748.5,572.0 757.0,572.0 765.4,572.0 773.8,572.0 782.3,572.0 790.7,572.0 799.1,572.0 807.6,572.0 816.0,572.0 824.5,572.0 832.9,572.0 841.3,572.0 849.8,572.0 858.2,572.0 866.6,572.0 875.1,572.0 883.5,572.0 891.9,572.0 900.4,572.0 908.8,572.0 917.3,572.0 925.7,572.0 934.1,572.0 942.6,572.0 951.0,572.0 959.4,572.0 967.9,572.0 976.3,572.0 984.8,572.0 993.2,572.0 1001.6,572.0 1010.1,572.0 1018.5,572.0 1026.9,572.0 1035.4,572.0 1043.8,572.0 1052.3,572.0 1060.7,572.0 1069.1,572.0 1077.6,572.0 1086.0,572.0" fill="none" stroke="#374151" stroke-width="2.6"/>
<rect x="890" y="146" width="14" height="4" fill="#374151"/>
<text x="912" y="151" class="legend">&gt; 42 C</text>
</svg>